M48
;Layer_Color=9474304
;FILE_FORMAT=4:4
METRIC,LZ
;TYPE=PLATED
T4F00S00C0.2500
T5F00S00C0.3000
T6F00S00C0.3048
T8F00S00C0.7000
T9F00S00C1.0000
T10F00S00C6.0000
%
T04
X-0009906Y-00114046
X00025644Y-00044462
X0003377Y-0000581
Y0000619
Y0001819
Y0003019
X0004677
X0005877
X0007077
Y0001819
Y0000619
Y-0000581
X0005877
X0004677
Y0000619
X0005877
Y0001819
X0004677
X00036606Y00059944
X0007027Y00050292
X00079532Y0003937
X0011176Y00041148
X0012993Y-00010308
X00126492Y-0002921
X00106638Y-00051998
X00117094Y-00135382
X00135382Y-00129794
X00073152Y-00172466
X-00061214Y001016
X-00060198Y00118872
X-00083146Y00124118
Y00113118
X-00094146
Y00124118
X-0011938Y0010668
X-00161036Y00074676
X-00047498Y00152146
X-0004826Y00167132
T05
X-00103886Y-0019177
X-00100838Y-00135382
X-00109728Y-00116332
X-00105664Y-00105664
X-00109402Y-00097464
X-00116586Y-0010287
X-00141732Y-00113792
X-00151384Y-0010795
X-00158242Y-00100076
X-0009906Y-00078994
X-00105743Y-00063714
X-00089408Y-00049022
X-00081402Y-00024053
X-000945Y-00006273
X-00103124Y00006096
X-00120396Y00001016
X-00114554Y-00008382
X-00143874
X-00144162Y00003158
X-00162162Y00003048
X-0017526Y00016256
X-00144162Y00029354
X-00131064Y00016256
X-00122936Y00037338
X-0013335Y00054102
X-00087884Y00037592
X-00081402Y00011507
X-00063402
X-00050304Y-00006273
X-0002794Y-00007366
X-00018004Y-00025908
X-00020066Y-00063246
X-00048006Y-00076581
X-00048006Y-00090678
X-00053522Y-00110926
X-00064318Y-00124196
X-00051054Y-0013843
X-00062992Y-00057912
X-00063754Y-00039116
X00007904Y-00039624
X00025176Y-00028956
X00010922Y00010668
X00011176Y00021336
X00006096Y00040894
X00009652Y00056896
X-0001778Y00060452
X-00033528Y00056696
X-0005646Y00045538
X-00043942Y00024892
X00003048Y-00081534
X-00216662Y0002413
X0005334Y0005715
X00081788Y00061722
X00109982Y00057404
X00140716Y00053848
X00139192Y00041402
X0014859Y00036765
X00176998Y00040382
X00173228Y00006858
X00159004Y00007112
X0014042
X00119634Y00000762
X00115346Y-00026162
X00126746Y-00046736
X00126238Y-00068326
X00125984Y-00092964
X00156464Y-0008001
X00172974Y-00088392
X00173228Y-00105071
Y-00123656
X00160473Y-00148608
X00171704Y-00162306
X00150622Y-00184658
X00135636Y-0017145
X00103124Y-00211582
X00077724Y-00099314
X00053848Y-0010414
X0002794Y-00082042
X00055148Y-0004826
X00080294
X0009779Y-0005334
X0006985Y-0003048
X0004445
X00152684Y-00012446
X00173228Y-00011726
Y-00030311
X00172974Y-00051223
Y-00069808
X0017653Y00063754
Y00082338
Y00100923
X00153416Y00091694
X00140534Y00078812
X0009017Y00065786
X00071628Y0007874
X00056926Y00084074
X00036606Y00087122
X00041686Y0012319
X00055118Y00113538
X0008382Y0009398
X00121509Y00142686
X0005842Y00173482
X00043688Y00196088
X00042926Y00225298
X00081788Y00206248
X-00032258Y00198374
X-00047172Y00201676
X-00061722Y0020193
X-00081788Y00198882
X-00082804Y00178562
X-00096774Y00178054
X-0007239Y00168402
X-0003683Y00172974
X-00008128Y00172212
X-0000889Y00136906
X-0003937Y00118872
X-00007366Y00075184
X00020066Y00074168
X-0007366Y00066548
X-0013081Y00065786
X-00170434Y00065278
X-0017779Y0008467
X-00171704Y00101854
X-00148336Y00093726
X-0014605Y00127508
X-00128317Y00132914
X-00128524Y00149534
X-00119888Y0015367
X-00118364Y00200152
X-00093726Y00211074
X-00078282Y00217932
X-00055118Y00226314
T06
X-00082042Y-00114046
T08
X-00192309Y-00078295
X-00172309Y-00078295
T09
X0Y-00185928
X00142748Y00110998
X00019558Y00215646
X-00005842
X-00031242
X-00212344Y0008001
T10
X0Y-0025
X00189Y00159
X-00189
M30
