G04 Layer_Color=128*
%FSLAX44Y44*%
%MOMM*%
G71*
G01*
G75*
%ADD10C,0.2540*%
%ADD13C,0.1270*%
%ADD14C,0.1778*%
%ADD16R,0.6200X0.6200*%
%ADD22R,0.6200X0.6200*%
D10*
X4024122Y-715015D02*
Y-730250D01*
X4031740D01*
X4034279Y-727711D01*
Y-725172D01*
X4031740Y-722633D01*
X4024122D01*
X4031740D01*
X4034279Y-720093D01*
Y-717554D01*
X4031740Y-715015D01*
X4024122D01*
X4041896Y-730250D02*
X4046974D01*
X4049514Y-727711D01*
Y-722633D01*
X4046974Y-720093D01*
X4041896D01*
X4039357Y-722633D01*
Y-727711D01*
X4041896Y-730250D01*
X4057131Y-717554D02*
Y-720093D01*
X4054592D01*
X4059670D01*
X4057131D01*
Y-727711D01*
X4059670Y-730250D01*
X4069827Y-717554D02*
Y-720093D01*
X4067288D01*
X4072366D01*
X4069827D01*
Y-727711D01*
X4072366Y-730250D01*
X4082523D02*
X4087602D01*
X4090141Y-727711D01*
Y-722633D01*
X4087602Y-720093D01*
X4082523D01*
X4079984Y-722633D01*
Y-727711D01*
X4082523Y-730250D01*
X4095219D02*
Y-720093D01*
X4097758D01*
X4100297Y-722633D01*
Y-730250D01*
Y-722633D01*
X4102837Y-720093D01*
X4105376Y-722633D01*
Y-730250D01*
X4125689D02*
Y-715015D01*
X4133307D01*
X4135846Y-717554D01*
Y-722633D01*
X4133307Y-725172D01*
X4125689D01*
X4143463Y-720093D02*
X4148542D01*
X4151081Y-722633D01*
Y-730250D01*
X4143463D01*
X4140924Y-727711D01*
X4143463Y-725172D01*
X4151081D01*
X4156159Y-730250D02*
X4163777D01*
X4166316Y-727711D01*
X4163777Y-725172D01*
X4158698D01*
X4156159Y-722633D01*
X4158698Y-720093D01*
X4166316D01*
X4173933Y-717554D02*
Y-720093D01*
X4171394D01*
X4176473D01*
X4173933D01*
Y-727711D01*
X4176473Y-730250D01*
X4191708D02*
X4186629D01*
X4184090Y-727711D01*
Y-722633D01*
X4186629Y-720093D01*
X4191708D01*
X4194247Y-722633D01*
Y-725172D01*
X4184090D01*
X2927858Y-826262D02*
X4451858D01*
X3537458Y-673862D02*
X4450516D01*
X2597658Y-351282D02*
X4450588D01*
X4451858Y-445262D02*
Y-247230D01*
X2597658D02*
X4451858D01*
X2597658Y-445262D02*
Y-247230D01*
Y-826262D02*
X2927858D01*
X2597658D02*
Y-445262D01*
X2927858D01*
X3537458Y-826262D02*
Y-445262D01*
X2927858D02*
X4451858D01*
Y-826262D02*
Y-445262D01*
X2927858Y-826262D02*
Y-445262D01*
X3766058Y-826262D02*
Y-750062D01*
X3537458D02*
X4451858D01*
X3867658Y-826262D02*
Y-750062D01*
X4350258Y-826262D02*
Y-750062D01*
X2927858Y-522732D02*
X3533648D01*
X2927858Y-598932D02*
X3533648D01*
X2927858Y-673862D02*
X3537458D01*
X2927858Y-750062D02*
X3537458D01*
X3283458Y-673862D02*
Y-445262D01*
X3181858Y-826262D02*
Y-750062D01*
X3537458Y-597662D02*
X4451858D01*
X2911258Y-383654D02*
X2907026Y-379422D01*
X2898562D01*
X2894330Y-383654D01*
Y-400582D01*
X2898562Y-404814D01*
X2907026D01*
X2911258Y-400582D01*
X2919722Y-379422D02*
Y-400582D01*
X2923954Y-404814D01*
X2932418D01*
X2936650Y-400582D01*
Y-379422D01*
X2962041Y-383654D02*
X2957809Y-379422D01*
X2949346D01*
X2945114Y-383654D01*
Y-387886D01*
X2949346Y-392118D01*
X2957809D01*
X2962041Y-396350D01*
Y-400582D01*
X2957809Y-404814D01*
X2949346D01*
X2945114Y-400582D01*
X2970505Y-379422D02*
X2987433D01*
X2978969D01*
Y-404814D01*
X3008593Y-379422D02*
X3000129D01*
X2995897Y-383654D01*
Y-400582D01*
X3000129Y-404814D01*
X3008593D01*
X3012825Y-400582D01*
Y-383654D01*
X3008593Y-379422D01*
X3021289Y-404814D02*
Y-379422D01*
X3029753Y-387886D01*
X3038217Y-379422D01*
Y-404814D01*
X3063609Y-379422D02*
X3046681D01*
Y-404814D01*
X3063609D01*
X3046681Y-392118D02*
X3055145D01*
X3072072Y-404814D02*
Y-379422D01*
X3084768D01*
X3089001Y-383654D01*
Y-392118D01*
X3084768Y-396350D01*
X3072072D01*
X3080536D02*
X3089001Y-404814D01*
X3097464Y-387886D02*
X3101696D01*
Y-392118D01*
X3097464D01*
Y-387886D01*
Y-400582D02*
X3101696D01*
Y-404814D01*
X3097464D01*
Y-400582D01*
X3144016Y-404814D02*
Y-387886D01*
X3152480Y-379422D01*
X3160944Y-387886D01*
Y-404814D01*
Y-392118D01*
X3144016D01*
X3169408Y-379422D02*
Y-404814D01*
X3182104D01*
X3186335Y-400582D01*
Y-396350D01*
Y-392118D01*
X3182104Y-387886D01*
X3169408D01*
X3194799Y-379422D02*
Y-404814D01*
Y-392118D01*
X3199031Y-387886D01*
X3207495D01*
X3211727Y-392118D01*
Y-404814D01*
X3224423Y-387886D02*
X3232887D01*
X3237119Y-392118D01*
Y-404814D01*
X3224423D01*
X3220191Y-400582D01*
X3224423Y-396350D01*
X3237119D01*
X3245583Y-387886D02*
Y-400582D01*
X3249815Y-404814D01*
X3262511D01*
Y-409046D01*
X3258279Y-413278D01*
X3254047D01*
X3262511Y-404814D02*
Y-387886D01*
X3275207D02*
X3283671D01*
X3287903Y-392118D01*
Y-404814D01*
X3275207D01*
X3270975Y-400582D01*
X3275207Y-396350D01*
X3287903D01*
X3338687Y-383654D02*
X3334454Y-379422D01*
X3325991D01*
X3321759Y-383654D01*
Y-400582D01*
X3325991Y-404814D01*
X3334454D01*
X3338687Y-400582D01*
Y-392118D01*
X3330222D01*
X3347150Y-404814D02*
X3355614D01*
X3351382D01*
Y-379422D01*
X3347150D01*
X3372542Y-404814D02*
X3381006D01*
X3385238Y-400582D01*
Y-392118D01*
X3381006Y-387886D01*
X3372542D01*
X3368310Y-392118D01*
Y-400582D01*
X3372542Y-404814D01*
X3393702Y-379422D02*
Y-404814D01*
X3406398D01*
X3410630Y-400582D01*
Y-396350D01*
Y-392118D01*
X3406398Y-387886D01*
X3393702D01*
X3423326D02*
X3431790D01*
X3436022Y-392118D01*
Y-404814D01*
X3423326D01*
X3419094Y-400582D01*
X3423326Y-396350D01*
X3436022D01*
X3444485Y-404814D02*
X3452950D01*
X3448718D01*
Y-379422D01*
X3444485D01*
X3491037D02*
X3499501D01*
X3495269D01*
Y-404814D01*
X3491037D01*
X3499501D01*
X3512197D02*
Y-387886D01*
X3524893D01*
X3529125Y-392118D01*
Y-404814D01*
X3541821D02*
Y-383654D01*
Y-392118D01*
X3537589D01*
X3546053D01*
X3541821D01*
Y-383654D01*
X3546053Y-379422D01*
X3562981Y-404814D02*
X3571444D01*
X3575677Y-400582D01*
Y-392118D01*
X3571444Y-387886D01*
X3562981D01*
X3558748Y-392118D01*
Y-400582D01*
X3562981Y-404814D01*
X3584140Y-387886D02*
Y-404814D01*
Y-396350D01*
X3588372Y-392118D01*
X3592604Y-387886D01*
X3596836D01*
X3609532Y-404814D02*
Y-387886D01*
X3613764D01*
X3617996Y-392118D01*
Y-404814D01*
Y-392118D01*
X3622228Y-387886D01*
X3626460Y-392118D01*
Y-404814D01*
X3639156Y-387886D02*
X3647620D01*
X3651852Y-392118D01*
Y-404814D01*
X3639156D01*
X3634924Y-400582D01*
X3639156Y-396350D01*
X3651852D01*
X3664548Y-383654D02*
Y-387886D01*
X3660316D01*
X3668780D01*
X3664548D01*
Y-400582D01*
X3668780Y-404814D01*
X3681476D02*
X3689940D01*
X3685708D01*
Y-387886D01*
X3681476D01*
X3706867Y-404814D02*
X3715331D01*
X3719563Y-400582D01*
Y-392118D01*
X3715331Y-387886D01*
X3706867D01*
X3702635Y-392118D01*
Y-400582D01*
X3706867Y-404814D01*
X3728027D02*
Y-387886D01*
X3740723D01*
X3744955Y-392118D01*
Y-404814D01*
X3778811Y-379422D02*
X3795739D01*
X3787275D01*
Y-404814D01*
X3816898D02*
X3808434D01*
X3804203Y-400582D01*
Y-392118D01*
X3808434Y-387886D01*
X3816898D01*
X3821130Y-392118D01*
Y-396350D01*
X3804203D01*
X3846522Y-387886D02*
X3833826D01*
X3829594Y-392118D01*
Y-400582D01*
X3833826Y-404814D01*
X3846522D01*
X3854986Y-379422D02*
Y-404814D01*
Y-392118D01*
X3859218Y-387886D01*
X3867682D01*
X3871914Y-392118D01*
Y-404814D01*
X3880378D02*
Y-387886D01*
X3893074D01*
X3897306Y-392118D01*
Y-404814D01*
X3910002D02*
X3918466D01*
X3922698Y-400582D01*
Y-392118D01*
X3918466Y-387886D01*
X3910002D01*
X3905770Y-392118D01*
Y-400582D01*
X3910002Y-404814D01*
X3931161D02*
X3939626D01*
X3935394D01*
Y-379422D01*
X3931161D01*
X3956553Y-404814D02*
X3965017D01*
X3969249Y-400582D01*
Y-392118D01*
X3965017Y-387886D01*
X3956553D01*
X3952321Y-392118D01*
Y-400582D01*
X3956553Y-404814D01*
X3986177Y-413278D02*
X3990409D01*
X3994641Y-409046D01*
Y-387886D01*
X3981945D01*
X3977713Y-392118D01*
Y-400582D01*
X3981945Y-404814D01*
X3994641D01*
X4003105Y-387886D02*
Y-400582D01*
X4007337Y-404814D01*
X4020033D01*
Y-409046D01*
X4015801Y-413278D01*
X4011569D01*
X4020033Y-404814D02*
Y-387886D01*
X4053889Y-379422D02*
X4062353D01*
X4058121D01*
Y-404814D01*
X4053889D01*
X4062353D01*
X4075049D02*
Y-387886D01*
X4087744D01*
X4091976Y-392118D01*
Y-404814D01*
X4117368Y-387886D02*
X4104672D01*
X4100440Y-392118D01*
Y-400582D01*
X4104672Y-404814D01*
X4117368D01*
X4125832D02*
Y-400582D01*
X4130064D01*
Y-404814D01*
X4125832D01*
X3031998Y-645673D02*
Y-655830D01*
X3037076Y-660908D01*
X3042155Y-655830D01*
Y-645673D01*
X3047233Y-660908D02*
X3052311D01*
X3049772D01*
Y-650751D01*
X3047233D01*
X3059929Y-665986D02*
X3062468D01*
X3065007Y-663447D01*
Y-650751D01*
X3077703D02*
X3082782D01*
X3085321Y-653290D01*
Y-660908D01*
X3077703D01*
X3075164Y-658369D01*
X3077703Y-655830D01*
X3085321D01*
X3090399Y-650751D02*
Y-658369D01*
X3092938Y-660908D01*
X3100556D01*
Y-663447D01*
X3098017Y-665986D01*
X3095478D01*
X3100556Y-660908D02*
Y-650751D01*
X3120869Y-660908D02*
Y-650751D01*
X3125948Y-645673D01*
X3131026Y-650751D01*
Y-660908D01*
Y-653290D01*
X3120869D01*
X3136104Y-660908D02*
Y-650751D01*
X3143722D01*
X3146261Y-653290D01*
Y-660908D01*
X3153878Y-650751D02*
X3158957D01*
X3161496Y-653290D01*
Y-660908D01*
X3153878D01*
X3151339Y-658369D01*
X3153878Y-655830D01*
X3161496D01*
X3166574Y-660908D02*
Y-650751D01*
X3174192D01*
X3176731Y-653290D01*
Y-660908D01*
X3191966Y-645673D02*
Y-660908D01*
X3184349D01*
X3181809Y-658369D01*
Y-653290D01*
X3184349Y-650751D01*
X3191966D01*
X3033268Y-581406D02*
Y-571249D01*
X3038346Y-566171D01*
X3043425Y-571249D01*
Y-581406D01*
Y-573788D01*
X3033268D01*
X3048503Y-571249D02*
Y-581406D01*
Y-576328D01*
X3051042Y-573788D01*
X3053582Y-571249D01*
X3056121D01*
X3066277D02*
X3071356D01*
X3073895Y-573788D01*
Y-581406D01*
X3066277D01*
X3063738Y-578867D01*
X3066277Y-576328D01*
X3073895D01*
X3078973Y-571249D02*
X3084052Y-581406D01*
X3089130Y-571249D01*
X3094208Y-581406D02*
X3099286D01*
X3096747D01*
Y-571249D01*
X3094208D01*
X3106904Y-581406D02*
Y-571249D01*
X3114522D01*
X3117061Y-573788D01*
Y-581406D01*
X3124678Y-568710D02*
Y-571249D01*
X3122139D01*
X3127218D01*
X3124678D01*
Y-578867D01*
X3127218Y-581406D01*
X3134835Y-566171D02*
Y-581406D01*
Y-573788D01*
X3137374Y-571249D01*
X3142453D01*
X3144992Y-573788D01*
Y-581406D01*
X3165305Y-566171D02*
Y-581406D01*
X3172923D01*
X3175462Y-578867D01*
Y-568710D01*
X3172923Y-566171D01*
X3165305D01*
X3043425Y-494796D02*
X3040886Y-492257D01*
X3035807D01*
X3033268Y-494796D01*
Y-497335D01*
X3035807Y-499874D01*
X3040886D01*
X3043425Y-502414D01*
Y-504953D01*
X3040886Y-507492D01*
X3035807D01*
X3033268Y-504953D01*
X3051042Y-497335D02*
X3056121D01*
X3058660Y-499874D01*
Y-507492D01*
X3051042D01*
X3048503Y-504953D01*
X3051042Y-502414D01*
X3058660D01*
X3063738Y-507492D02*
Y-497335D01*
X3071356D01*
X3073895Y-499874D01*
Y-507492D01*
X3089130Y-492257D02*
Y-507492D01*
X3081512D01*
X3078973Y-504953D01*
Y-499874D01*
X3081512Y-497335D01*
X3089130D01*
X3101826Y-507492D02*
X3096747D01*
X3094208Y-504953D01*
Y-499874D01*
X3096747Y-497335D01*
X3101826D01*
X3104365Y-499874D01*
Y-502414D01*
X3094208D01*
X3117061Y-507492D02*
X3111982D01*
X3109443Y-504953D01*
Y-499874D01*
X3111982Y-497335D01*
X3117061D01*
X3119600Y-499874D01*
Y-502414D01*
X3109443D01*
X3124678Y-512570D02*
Y-497335D01*
X3132296D01*
X3134835Y-499874D01*
Y-504953D01*
X3132296Y-507492D01*
X3124678D01*
X3560318Y-647754D02*
Y-627441D01*
X3570475D01*
X3573860Y-630826D01*
Y-637597D01*
X3570475Y-640983D01*
X3560318D01*
X3567089D02*
X3573860Y-647754D01*
X3590788Y-627441D02*
X3584017D01*
X3580631Y-630826D01*
Y-644368D01*
X3584017Y-647754D01*
X3590788D01*
X3594174Y-644368D01*
Y-630826D01*
X3590788Y-627441D01*
X3614487D02*
X3607716D01*
X3611102D01*
Y-644368D01*
X3607716Y-647754D01*
X3604330D01*
X3600945Y-644368D01*
X3634801Y-627441D02*
X3621258D01*
Y-647754D01*
X3634801D01*
X3621258Y-637597D02*
X3628029D01*
X3655114Y-630826D02*
X3651729Y-627441D01*
X3644957D01*
X3641572Y-630826D01*
Y-644368D01*
X3644957Y-647754D01*
X3651729D01*
X3655114Y-644368D01*
X3661885Y-627441D02*
X3675428D01*
X3668656D01*
Y-647754D01*
X3702512D02*
Y-627441D01*
X3716054Y-647754D01*
Y-627441D01*
X3722825Y-647754D02*
Y-634212D01*
X3729597Y-627441D01*
X3736368Y-634212D01*
Y-647754D01*
Y-637597D01*
X3722825D01*
X3743139Y-647754D02*
Y-627441D01*
X3749910Y-634212D01*
X3756681Y-627441D01*
Y-647754D01*
X3776995Y-627441D02*
X3763452D01*
Y-647754D01*
X3776995D01*
X3763452Y-637597D02*
X3770223D01*
X3783766Y-634212D02*
X3787151D01*
Y-637597D01*
X3783766D01*
Y-634212D01*
Y-644368D02*
X3787151D01*
Y-647754D01*
X3783766D01*
Y-644368D01*
X3854863Y-627441D02*
X3841320D01*
Y-647754D01*
X3854863D01*
X3841320Y-637597D02*
X3848091D01*
X3875176Y-647754D02*
X3861634D01*
X3875176Y-634212D01*
Y-630826D01*
X3871790Y-627441D01*
X3865019D01*
X3861634Y-630826D01*
X3895490D02*
X3892104Y-627441D01*
X3885333D01*
X3881947Y-630826D01*
Y-634212D01*
X3885333Y-637597D01*
X3892104D01*
X3895490Y-640983D01*
Y-644368D01*
X3892104Y-647754D01*
X3885333D01*
X3881947Y-644368D01*
X3902261Y-637597D02*
X3915803D01*
X3922574Y-647754D02*
Y-634212D01*
X3929345Y-627441D01*
X3936116Y-634212D01*
Y-647754D01*
Y-637597D01*
X3922574D01*
X3942887Y-627441D02*
Y-647754D01*
X3953044D01*
X3956430Y-644368D01*
Y-640983D01*
X3953044Y-637597D01*
X3942887D01*
X3953044D01*
X3956430Y-634212D01*
Y-630826D01*
X3953044Y-627441D01*
X3942887D01*
X3963201D02*
Y-647754D01*
Y-637597D01*
X3976743D01*
Y-627441D01*
Y-647754D01*
X3983514Y-637597D02*
X3997057D01*
X4003828Y-630826D02*
X4007213Y-627441D01*
X4013984D01*
X4017370Y-630826D01*
Y-644368D01*
X4013984Y-647754D01*
X4007213D01*
X4003828Y-644368D01*
Y-630826D01*
X4024141Y-647754D02*
X4030912D01*
X4027527D01*
Y-627441D01*
X4024141Y-630826D01*
X4041069D02*
X4044455Y-627441D01*
X4051226D01*
X4054611Y-630826D01*
Y-644368D01*
X4051226Y-647754D01*
X4044455D01*
X4041069Y-644368D01*
Y-630826D01*
X4061382Y-627441D02*
Y-640983D01*
X4068153Y-647754D01*
X4074925Y-640983D01*
Y-627441D01*
X4081696Y-647754D02*
X4088467D01*
X4085081D01*
Y-627441D01*
X4081696Y-630826D01*
X3684270Y-803148D02*
X3690195D01*
X3687232D01*
Y-785374D01*
X3684270Y-788336D01*
X3699082D02*
X3702044Y-785374D01*
X3707969D01*
X3710931Y-788336D01*
Y-800186D01*
X3707969Y-803148D01*
X3702044D01*
X3699082Y-800186D01*
Y-788336D01*
X3564292Y-548648D02*
X3547364D01*
Y-574040D01*
X3564292D01*
X3547364Y-561344D02*
X3555828D01*
X3572756Y-574040D02*
Y-557112D01*
X3576988D01*
X3581220Y-561344D01*
Y-574040D01*
Y-561344D01*
X3585452Y-557112D01*
X3589684Y-561344D01*
Y-574040D01*
X3598148Y-548648D02*
Y-574040D01*
X3610844D01*
X3615075Y-569808D01*
Y-565576D01*
Y-561344D01*
X3610844Y-557112D01*
X3598148D01*
X3640467Y-548648D02*
Y-574040D01*
X3627771D01*
X3623539Y-569808D01*
Y-561344D01*
X3627771Y-557112D01*
X3640467D01*
X3661627Y-574040D02*
X3653163D01*
X3648931Y-569808D01*
Y-561344D01*
X3653163Y-557112D01*
X3661627D01*
X3665859Y-561344D01*
Y-565576D01*
X3648931D01*
X3674323Y-574040D02*
X3687019D01*
X3691251Y-569808D01*
X3687019Y-565576D01*
X3678555D01*
X3674323Y-561344D01*
X3678555Y-557112D01*
X3691251D01*
X3742034Y-548648D02*
X3725107D01*
Y-574040D01*
X3742034D01*
X3725107Y-561344D02*
X3733571D01*
X3750498Y-574040D02*
Y-557112D01*
X3763194D01*
X3767426Y-561344D01*
Y-574040D01*
X3784354Y-582504D02*
X3788586D01*
X3792818Y-578272D01*
Y-557112D01*
X3780122D01*
X3775890Y-561344D01*
Y-569808D01*
X3780122Y-574040D01*
X3792818D01*
X3801282D02*
X3809746D01*
X3805514D01*
Y-557112D01*
X3801282D01*
X3822442Y-574040D02*
Y-557112D01*
X3835138D01*
X3839370Y-561344D01*
Y-574040D01*
X3860529D02*
X3852065D01*
X3847834Y-569808D01*
Y-561344D01*
X3852065Y-557112D01*
X3860529D01*
X3864761Y-561344D01*
Y-565576D01*
X3847834D01*
X3885921Y-574040D02*
X3877457D01*
X3873225Y-569808D01*
Y-561344D01*
X3877457Y-557112D01*
X3885921D01*
X3890153Y-561344D01*
Y-565576D01*
X3873225D01*
X3898617Y-557112D02*
Y-574040D01*
Y-565576D01*
X3902849Y-561344D01*
X3907081Y-557112D01*
X3911313D01*
X3924009Y-574040D02*
X3932473D01*
X3928241D01*
Y-557112D01*
X3924009D01*
X3945169Y-574040D02*
Y-557112D01*
X3957865D01*
X3962097Y-561344D01*
Y-574040D01*
X3979024Y-582504D02*
X3983257D01*
X3987488Y-578272D01*
Y-557112D01*
X3974792D01*
X3970561Y-561344D01*
Y-569808D01*
X3974792Y-574040D01*
X3987488D01*
X4038272Y-552880D02*
X4034040Y-548648D01*
X4025576D01*
X4021344Y-552880D01*
Y-557112D01*
X4025576Y-561344D01*
X4034040D01*
X4038272Y-565576D01*
Y-569808D01*
X4034040Y-574040D01*
X4025576D01*
X4021344Y-569808D01*
X4050968Y-574040D02*
X4059432D01*
X4063664Y-569808D01*
Y-561344D01*
X4059432Y-557112D01*
X4050968D01*
X4046736Y-561344D01*
Y-569808D01*
X4050968Y-574040D01*
X4072128D02*
X4080592D01*
X4076360D01*
Y-548648D01*
X4072128D01*
X4093288Y-557112D02*
Y-569808D01*
X4097520Y-574040D01*
X4110215D01*
Y-557112D01*
X4122911Y-552880D02*
Y-557112D01*
X4118680D01*
X4127143D01*
X4122911D01*
Y-569808D01*
X4127143Y-574040D01*
X4139839D02*
X4148303D01*
X4144071D01*
Y-557112D01*
X4139839D01*
X4165231Y-574040D02*
X4173695D01*
X4177927Y-569808D01*
Y-561344D01*
X4173695Y-557112D01*
X4165231D01*
X4160999Y-561344D01*
Y-569808D01*
X4165231Y-574040D01*
X4186391D02*
Y-557112D01*
X4199087D01*
X4203319Y-561344D01*
Y-574040D01*
X4211783D02*
X4224478D01*
X4228711Y-569808D01*
X4224478Y-565576D01*
X4216015D01*
X4211783Y-561344D01*
X4216015Y-557112D01*
X4228711D01*
X4262566Y-574040D02*
Y-548648D01*
X4275262D01*
X4279494Y-552880D01*
Y-561344D01*
X4275262Y-565576D01*
X4262566D01*
X4287958Y-557112D02*
X4296422Y-574040D01*
X4304886Y-557112D01*
X4317582Y-552880D02*
Y-557112D01*
X4313350D01*
X4321814D01*
X4317582D01*
Y-569808D01*
X4321814Y-574040D01*
X4334510D02*
Y-569808D01*
X4338741D01*
Y-574040D01*
X4334510D01*
X4355670Y-548648D02*
Y-574040D01*
X4372597D01*
X4385293Y-552880D02*
Y-557112D01*
X4381061D01*
X4389525D01*
X4385293D01*
Y-569808D01*
X4389525Y-574040D01*
X4419149Y-548648D02*
Y-574040D01*
X4406453D01*
X4402221Y-569808D01*
Y-561344D01*
X4406453Y-557112D01*
X4419149D01*
X4427613Y-574040D02*
Y-569808D01*
X4431845D01*
Y-574040D01*
X4427613D01*
X2611221Y-327968D02*
Y-315272D01*
X2617569Y-308924D01*
X2623917Y-315272D01*
Y-327968D01*
Y-318446D01*
X2611221D01*
X2630265Y-327968D02*
Y-308924D01*
X2642961Y-327968D01*
Y-308924D01*
X2649308D02*
Y-312098D01*
X2655656Y-318446D01*
X2662004Y-312098D01*
Y-308924D01*
X2655656Y-318446D02*
Y-327968D01*
X2687396D02*
Y-308924D01*
X2696918D01*
X2700092Y-312098D01*
Y-318446D01*
X2696918Y-321620D01*
X2687396D01*
X2706440Y-327968D02*
Y-308924D01*
X2715962D01*
X2719136Y-312098D01*
Y-318446D01*
X2715962Y-321620D01*
X2706440D01*
X2712788D02*
X2719136Y-327968D01*
X2735006Y-308924D02*
X2728658D01*
X2725484Y-312098D01*
Y-324794D01*
X2728658Y-327968D01*
X2735006D01*
X2738180Y-324794D01*
Y-312098D01*
X2735006Y-308924D01*
X2744528D02*
Y-327968D01*
X2754049D01*
X2757224Y-324794D01*
Y-312098D01*
X2754049Y-308924D01*
X2744528D01*
X2763571D02*
Y-324794D01*
X2766745Y-327968D01*
X2773093D01*
X2776267Y-324794D01*
Y-308924D01*
X2795311Y-312098D02*
X2792137Y-308924D01*
X2785789D01*
X2782615Y-312098D01*
Y-324794D01*
X2785789Y-327968D01*
X2792137D01*
X2795311Y-324794D01*
X2801659Y-308924D02*
X2814355D01*
X2808007D01*
Y-327968D01*
X2820703Y-308924D02*
X2827051D01*
X2823877D01*
Y-327968D01*
X2820703D01*
X2827051D01*
X2846095Y-308924D02*
X2839747D01*
X2836573Y-312098D01*
Y-324794D01*
X2839747Y-327968D01*
X2846095D01*
X2849269Y-324794D01*
Y-312098D01*
X2846095Y-308924D01*
X2855617Y-327968D02*
Y-308924D01*
X2868313Y-327968D01*
Y-308924D01*
X2893705D02*
X2900052D01*
X2896878D01*
Y-327968D01*
X2893705D01*
X2900052D01*
X2909574D02*
Y-308924D01*
X2922270Y-327968D01*
Y-308924D01*
X2947662Y-327968D02*
Y-308924D01*
X2957184D01*
X2960358Y-312098D01*
Y-318446D01*
X2957184Y-321620D01*
X2947662D01*
X2966706Y-327968D02*
Y-315272D01*
X2973054Y-308924D01*
X2979402Y-315272D01*
Y-327968D01*
Y-318446D01*
X2966706D01*
X2985750Y-327968D02*
Y-308924D01*
X2995272D01*
X2998446Y-312098D01*
Y-318446D01*
X2995272Y-321620D01*
X2985750D01*
X2992098D02*
X2998446Y-327968D01*
X3004794Y-308924D02*
X3017490D01*
X3011141D01*
Y-327968D01*
X3052403Y-308924D02*
X3046055D01*
X3042881Y-312098D01*
Y-324794D01*
X3046055Y-327968D01*
X3052403D01*
X3055577Y-324794D01*
Y-312098D01*
X3052403Y-308924D01*
X3061925Y-327968D02*
Y-308924D01*
X3071447D01*
X3074621Y-312098D01*
Y-318446D01*
X3071447Y-321620D01*
X3061925D01*
X3068273D02*
X3074621Y-327968D01*
X3100013Y-308924D02*
Y-327968D01*
X3106361Y-321620D01*
X3112709Y-327968D01*
Y-308924D01*
X3119057D02*
Y-327968D01*
Y-318446D01*
X3131753D01*
Y-308924D01*
Y-327968D01*
X3147622Y-308924D02*
X3141274D01*
X3138101Y-312098D01*
Y-324794D01*
X3141274Y-327968D01*
X3147622D01*
X3150797Y-324794D01*
Y-312098D01*
X3147622Y-308924D01*
X3157144D02*
Y-327968D01*
X3169840D01*
X3188884Y-308924D02*
X3176188D01*
Y-327968D01*
X3188884D01*
X3176188Y-318446D02*
X3182536D01*
X3214276Y-308924D02*
Y-327968D01*
X3220624Y-321620D01*
X3226972Y-327968D01*
Y-308924D01*
X3233320D02*
X3239668D01*
X3236494D01*
Y-327968D01*
X3233320D01*
X3239668D01*
X3249190Y-308924D02*
X3261886D01*
X3255538D01*
Y-327968D01*
X3268234Y-308924D02*
Y-327968D01*
Y-318446D01*
X3280929D01*
Y-308924D01*
Y-327968D01*
X3296799Y-308924D02*
X3290451D01*
X3287278Y-312098D01*
Y-324794D01*
X3290451Y-327968D01*
X3296799D01*
X3299973Y-324794D01*
Y-312098D01*
X3296799Y-308924D01*
X3306321D02*
Y-324794D01*
X3309495Y-327968D01*
X3315843D01*
X3319017Y-324794D01*
Y-308924D01*
X3325365D02*
X3338061D01*
X3331713D01*
Y-327968D01*
X3363453D02*
Y-308924D01*
X3372975D01*
X3376149Y-312098D01*
Y-318446D01*
X3372975Y-321620D01*
X3363453D01*
X3382497Y-327968D02*
Y-308924D01*
X3392019D01*
X3395193Y-312098D01*
Y-318446D01*
X3392019Y-321620D01*
X3382497D01*
X3388845D02*
X3395193Y-327968D01*
X3401541Y-308924D02*
X3407888D01*
X3404714D01*
Y-327968D01*
X3401541D01*
X3407888D01*
X3426932Y-308924D02*
X3420584D01*
X3417410Y-312098D01*
Y-324794D01*
X3420584Y-327968D01*
X3426932D01*
X3430106Y-324794D01*
Y-312098D01*
X3426932Y-308924D01*
X3436454Y-327968D02*
Y-308924D01*
X3445976D01*
X3449150Y-312098D01*
Y-318446D01*
X3445976Y-321620D01*
X3436454D01*
X3442802D02*
X3449150Y-327968D01*
X3474542Y-308924D02*
Y-327968D01*
X3480890Y-321620D01*
X3487238Y-327968D01*
Y-308924D01*
X3493586Y-327968D02*
Y-308924D01*
X3503108D01*
X3506282Y-312098D01*
Y-318446D01*
X3503108Y-321620D01*
X3493586D01*
X3499934D02*
X3506282Y-327968D01*
X3512630Y-308924D02*
X3518978D01*
X3515804D01*
Y-327968D01*
X3512630D01*
X3518978D01*
X3528499Y-308924D02*
X3541195D01*
X3534847D01*
Y-327968D01*
X3547543Y-308924D02*
X3560239D01*
X3553891D01*
Y-327968D01*
X3579283Y-308924D02*
X3566587D01*
Y-327968D01*
X3579283D01*
X3566587Y-318446D02*
X3572935D01*
X3585631Y-327968D02*
Y-308924D01*
X3598327Y-327968D01*
Y-308924D01*
X3623719Y-327968D02*
Y-315272D01*
X3630067Y-308924D01*
X3636415Y-315272D01*
Y-327968D01*
Y-318446D01*
X3623719D01*
X3642762Y-308924D02*
Y-324794D01*
X3645937Y-327968D01*
X3652285D01*
X3655458Y-324794D01*
Y-308924D01*
X3661807D02*
X3674502D01*
X3668154D01*
Y-327968D01*
X3680850Y-308924D02*
Y-327968D01*
Y-318446D01*
X3693546D01*
Y-308924D01*
Y-327968D01*
X3709416Y-308924D02*
X3703068D01*
X3699894Y-312098D01*
Y-324794D01*
X3703068Y-327968D01*
X3709416D01*
X3712590Y-324794D01*
Y-312098D01*
X3709416Y-308924D01*
X3718938Y-327968D02*
Y-308924D01*
X3728460D01*
X3731634Y-312098D01*
Y-318446D01*
X3728460Y-321620D01*
X3718938D01*
X3725286D02*
X3731634Y-327968D01*
X3737982Y-308924D02*
X3744330D01*
X3741156D01*
Y-327968D01*
X3737982D01*
X3744330D01*
X3753852Y-308924D02*
X3766548D01*
Y-312098D01*
X3753852Y-324794D01*
Y-327968D01*
X3766548D01*
X3772896D02*
Y-315272D01*
X3779243Y-308924D01*
X3785591Y-315272D01*
Y-327968D01*
Y-318446D01*
X3772896D01*
X3791939Y-308924D02*
X3804635D01*
X3798287D01*
Y-327968D01*
X3810983Y-308924D02*
X3817331D01*
X3814157D01*
Y-327968D01*
X3810983D01*
X3817331D01*
X3836375Y-308924D02*
X3830027D01*
X3826853Y-312098D01*
Y-324794D01*
X3830027Y-327968D01*
X3836375D01*
X3839549Y-324794D01*
Y-312098D01*
X3836375Y-308924D01*
X3845897Y-327968D02*
Y-308924D01*
X3858593Y-327968D01*
Y-308924D01*
X3893507D02*
X3887159D01*
X3883985Y-312098D01*
Y-324794D01*
X3887159Y-327968D01*
X3893507D01*
X3896681Y-324794D01*
Y-312098D01*
X3893507Y-308924D01*
X3915724D02*
X3903029D01*
Y-318446D01*
X3909377D01*
X3903029D01*
Y-327968D01*
X3953812Y-312098D02*
X3950638Y-308924D01*
X3944290D01*
X3941116Y-312098D01*
Y-324794D01*
X3944290Y-327968D01*
X3950638D01*
X3953812Y-324794D01*
X3960160Y-308924D02*
Y-324794D01*
X3963334Y-327968D01*
X3969682D01*
X3972856Y-324794D01*
Y-308924D01*
X3991900Y-312098D02*
X3988726Y-308924D01*
X3982378D01*
X3979204Y-312098D01*
Y-315272D01*
X3982378Y-318446D01*
X3988726D01*
X3991900Y-321620D01*
Y-324794D01*
X3988726Y-327968D01*
X3982378D01*
X3979204Y-324794D01*
X3998248Y-308924D02*
X4010944D01*
X4004596D01*
Y-327968D01*
X4026814Y-308924D02*
X4020466D01*
X4017292Y-312098D01*
Y-324794D01*
X4020466Y-327968D01*
X4026814D01*
X4029987Y-324794D01*
Y-312098D01*
X4026814Y-308924D01*
X4036335Y-327968D02*
Y-308924D01*
X4042683Y-315272D01*
X4049031Y-308924D01*
Y-327968D01*
X4068075Y-308924D02*
X4055379D01*
Y-327968D01*
X4068075D01*
X4055379Y-318446D02*
X4061727D01*
X4074423Y-327968D02*
Y-308924D01*
X4083945D01*
X4087119Y-312098D01*
Y-318446D01*
X4083945Y-321620D01*
X4074423D01*
X4080771D02*
X4087119Y-327968D01*
X4112511Y-308924D02*
X4118859D01*
X4115685D01*
Y-327968D01*
X4112511D01*
X4118859D01*
X4141077Y-312098D02*
X4137903Y-308924D01*
X4131555D01*
X4128381Y-312098D01*
Y-315272D01*
X4131555Y-318446D01*
X4137903D01*
X4141077Y-321620D01*
Y-324794D01*
X4137903Y-327968D01*
X4131555D01*
X4128381Y-324794D01*
X4166469Y-327968D02*
Y-308924D01*
X4175991D01*
X4179164Y-312098D01*
Y-318446D01*
X4175991Y-321620D01*
X4166469D01*
X4185512Y-327968D02*
Y-308924D01*
X4195034D01*
X4198208Y-312098D01*
Y-318446D01*
X4195034Y-321620D01*
X4185512D01*
X4191860D02*
X4198208Y-327968D01*
X4214078Y-308924D02*
X4207730D01*
X4204556Y-312098D01*
Y-324794D01*
X4207730Y-327968D01*
X4214078D01*
X4217252Y-324794D01*
Y-312098D01*
X4214078Y-308924D01*
X4223600D02*
Y-327968D01*
Y-318446D01*
X4236296D01*
Y-308924D01*
Y-327968D01*
X4242644Y-308924D02*
X4248992D01*
X4245818D01*
Y-327968D01*
X4242644D01*
X4248992D01*
X4258514Y-308924D02*
Y-327968D01*
X4268036D01*
X4271210Y-324794D01*
Y-321620D01*
X4268036Y-318446D01*
X4258514D01*
X4268036D01*
X4271210Y-315272D01*
Y-312098D01*
X4268036Y-308924D01*
X4258514D01*
X4277558D02*
X4283906D01*
X4280732D01*
Y-327968D01*
X4277558D01*
X4283906D01*
X4293428Y-308924D02*
X4306123D01*
X4299775D01*
Y-327968D01*
X4325167Y-308924D02*
X4312471D01*
Y-327968D01*
X4325167D01*
X4312471Y-318446D02*
X4318819D01*
X4331515Y-308924D02*
Y-327968D01*
X4341037D01*
X4344211Y-324794D01*
Y-312098D01*
X4341037Y-308924D01*
X4331515D01*
X4350559Y-327968D02*
Y-324794D01*
X4353733D01*
Y-327968D01*
X4350559D01*
X2609154Y-269936D02*
X2621849D01*
X2615502D01*
Y-288980D01*
X2628198Y-269936D02*
Y-288980D01*
Y-279458D01*
X2640893D01*
Y-269936D01*
Y-288980D01*
X2659937Y-269936D02*
X2647242D01*
Y-288980D01*
X2659937D01*
X2647242Y-279458D02*
X2653589D01*
X2685329Y-269936D02*
X2691677D01*
X2688503D01*
Y-288980D01*
X2685329D01*
X2691677D01*
X2701199D02*
Y-269936D01*
X2713895Y-288980D01*
Y-269936D01*
X2732939D02*
X2720243D01*
Y-279458D01*
X2726591D01*
X2720243D01*
Y-288980D01*
X2748809Y-269936D02*
X2742461D01*
X2739286Y-273110D01*
Y-285806D01*
X2742461Y-288980D01*
X2748809D01*
X2751982Y-285806D01*
Y-273110D01*
X2748809Y-269936D01*
X2758330Y-288980D02*
Y-269936D01*
X2767852D01*
X2771026Y-273110D01*
Y-279458D01*
X2767852Y-282632D01*
X2758330D01*
X2764678D02*
X2771026Y-288980D01*
X2777374D02*
Y-269936D01*
X2783722Y-276284D01*
X2790070Y-269936D01*
Y-288980D01*
X2796418D02*
Y-276284D01*
X2802766Y-269936D01*
X2809114Y-276284D01*
Y-288980D01*
Y-279458D01*
X2796418D01*
X2815462Y-269936D02*
X2828158D01*
X2821810D01*
Y-288980D01*
X2834506Y-269936D02*
X2840854D01*
X2837680D01*
Y-288980D01*
X2834506D01*
X2840854D01*
X2859898Y-269936D02*
X2853550D01*
X2850376Y-273110D01*
Y-285806D01*
X2853550Y-288980D01*
X2859898D01*
X2863072Y-285806D01*
Y-273110D01*
X2859898Y-269936D01*
X2869420Y-288980D02*
Y-269936D01*
X2882115Y-288980D01*
Y-269936D01*
X2920203Y-273110D02*
X2917029Y-269936D01*
X2910681D01*
X2907507Y-273110D01*
Y-285806D01*
X2910681Y-288980D01*
X2917029D01*
X2920203Y-285806D01*
X2936073Y-269936D02*
X2929725D01*
X2926551Y-273110D01*
Y-285806D01*
X2929725Y-288980D01*
X2936073D01*
X2939247Y-285806D01*
Y-273110D01*
X2936073Y-269936D01*
X2945595Y-288980D02*
Y-269936D01*
X2958291Y-288980D01*
Y-269936D01*
X2964639D02*
X2977335D01*
X2970987D01*
Y-288980D01*
X2983683D02*
Y-276284D01*
X2990031Y-269936D01*
X2996378Y-276284D01*
Y-288980D01*
Y-279458D01*
X2983683D01*
X3002727Y-269936D02*
X3009075D01*
X3005901D01*
Y-288980D01*
X3002727D01*
X3009075D01*
X3018596D02*
Y-269936D01*
X3031292Y-288980D01*
Y-269936D01*
X3050336D02*
X3037640D01*
Y-288980D01*
X3050336D01*
X3037640Y-279458D02*
X3043988D01*
X3056684Y-269936D02*
Y-288980D01*
X3066206D01*
X3069380Y-285806D01*
Y-273110D01*
X3066206Y-269936D01*
X3056684D01*
X3094772D02*
X3101120D01*
X3097946D01*
Y-288980D01*
X3094772D01*
X3101120D01*
X3110642D02*
Y-269936D01*
X3123338Y-288980D01*
Y-269936D01*
X3148730D02*
X3161425D01*
X3155078D01*
Y-288980D01*
X3167773Y-269936D02*
Y-288980D01*
Y-279458D01*
X3180469D01*
Y-269936D01*
Y-288980D01*
X3186817Y-269936D02*
X3193165D01*
X3189991D01*
Y-288980D01*
X3186817D01*
X3193165D01*
X3215383Y-273110D02*
X3212209Y-269936D01*
X3205861D01*
X3202687Y-273110D01*
Y-276284D01*
X3205861Y-279458D01*
X3212209D01*
X3215383Y-282632D01*
Y-285806D01*
X3212209Y-288980D01*
X3205861D01*
X3202687Y-285806D01*
X3240775Y-269936D02*
Y-288980D01*
X3250297D01*
X3253470Y-285806D01*
Y-273110D01*
X3250297Y-269936D01*
X3240775D01*
X3269341D02*
X3262993D01*
X3259819Y-273110D01*
Y-285806D01*
X3262993Y-288980D01*
X3269341D01*
X3272515Y-285806D01*
Y-273110D01*
X3269341Y-269936D01*
X3291558Y-273110D02*
X3288384Y-269936D01*
X3282036D01*
X3278863Y-273110D01*
Y-285806D01*
X3282036Y-288980D01*
X3288384D01*
X3291558Y-285806D01*
X3297906Y-269936D02*
Y-285806D01*
X3301080Y-288980D01*
X3307428D01*
X3310602Y-285806D01*
Y-269936D01*
X3316950Y-288980D02*
Y-269936D01*
X3323298Y-276284D01*
X3329646Y-269936D01*
Y-288980D01*
X3348690Y-269936D02*
X3335994D01*
Y-288980D01*
X3348690D01*
X3335994Y-279458D02*
X3342342D01*
X3355038Y-288980D02*
Y-269936D01*
X3367734Y-288980D01*
Y-269936D01*
X3374082D02*
X3386778D01*
X3380430D01*
Y-288980D01*
X3412169Y-269936D02*
X3418517D01*
X3415343D01*
Y-288980D01*
X3412169D01*
X3418517D01*
X3440735Y-273110D02*
X3437561Y-269936D01*
X3431213D01*
X3428039Y-273110D01*
Y-276284D01*
X3431213Y-279458D01*
X3437561D01*
X3440735Y-282632D01*
Y-285806D01*
X3437561Y-288980D01*
X3431213D01*
X3428039Y-285806D01*
X3466127Y-288980D02*
Y-269936D01*
X3475649D01*
X3478823Y-273110D01*
Y-279458D01*
X3475649Y-282632D01*
X3466127D01*
X3485171Y-288980D02*
Y-269936D01*
X3494693D01*
X3497867Y-273110D01*
Y-279458D01*
X3494693Y-282632D01*
X3485171D01*
X3491519D02*
X3497867Y-288980D01*
X3513737Y-269936D02*
X3507389D01*
X3504215Y-273110D01*
Y-285806D01*
X3507389Y-288980D01*
X3513737D01*
X3516911Y-285806D01*
Y-273110D01*
X3513737Y-269936D01*
X3523259Y-288980D02*
Y-269936D01*
X3532780D01*
X3535954Y-273110D01*
Y-279458D01*
X3532780Y-282632D01*
X3523259D01*
X3542303Y-288980D02*
Y-269936D01*
X3551824D01*
X3554998Y-273110D01*
Y-279458D01*
X3551824Y-282632D01*
X3542303D01*
X3548651D02*
X3554998Y-288980D01*
X3561346Y-269936D02*
X3567694D01*
X3564520D01*
Y-288980D01*
X3561346D01*
X3567694D01*
X3589912Y-269936D02*
X3577216D01*
Y-288980D01*
X3589912D01*
X3577216Y-279458D02*
X3583564D01*
X3596260Y-269936D02*
X3608956D01*
X3602608D01*
Y-288980D01*
X3615304D02*
Y-276284D01*
X3621652Y-269936D01*
X3628000Y-276284D01*
Y-288980D01*
Y-279458D01*
X3615304D01*
X3634348Y-288980D02*
Y-269936D01*
X3643870D01*
X3647043Y-273110D01*
Y-279458D01*
X3643870Y-282632D01*
X3634348D01*
X3640695D02*
X3647043Y-288980D01*
X3653392Y-269936D02*
Y-273110D01*
X3659739Y-279458D01*
X3666087Y-273110D01*
Y-269936D01*
X3659739Y-279458D02*
Y-288980D01*
X3701001Y-269936D02*
X3694653D01*
X3691479Y-273110D01*
Y-285806D01*
X3694653Y-288980D01*
X3701001D01*
X3704175Y-285806D01*
Y-273110D01*
X3701001Y-269936D01*
X3723219D02*
X3710523D01*
Y-279458D01*
X3716871D01*
X3710523D01*
Y-288980D01*
X3761307Y-273110D02*
X3758133Y-269936D01*
X3751785D01*
X3748611Y-273110D01*
Y-285806D01*
X3751785Y-288980D01*
X3758133D01*
X3761307Y-285806D01*
X3767655Y-269936D02*
Y-285806D01*
X3770829Y-288980D01*
X3777177D01*
X3780351Y-285806D01*
Y-269936D01*
X3799395Y-273110D02*
X3796220Y-269936D01*
X3789872D01*
X3786699Y-273110D01*
Y-276284D01*
X3789872Y-279458D01*
X3796220D01*
X3799395Y-282632D01*
Y-285806D01*
X3796220Y-288980D01*
X3789872D01*
X3786699Y-285806D01*
X3805742Y-269936D02*
X3818438D01*
X3812090D01*
Y-288980D01*
X3834308Y-269936D02*
X3827960D01*
X3824786Y-273110D01*
Y-285806D01*
X3827960Y-288980D01*
X3834308D01*
X3837482Y-285806D01*
Y-273110D01*
X3834308Y-269936D01*
X3843830Y-288980D02*
Y-269936D01*
X3850178Y-276284D01*
X3856526Y-269936D01*
Y-288980D01*
X3875570Y-269936D02*
X3862874D01*
Y-288980D01*
X3875570D01*
X3862874Y-279458D02*
X3869222D01*
X3881918Y-288980D02*
Y-269936D01*
X3891440D01*
X3894614Y-273110D01*
Y-279458D01*
X3891440Y-282632D01*
X3881918D01*
X3888266D02*
X3894614Y-288980D01*
X3900962D02*
Y-285806D01*
X3904136D01*
Y-288980D01*
X3900962D01*
X3560318Y-471868D02*
Y-497260D01*
X3573014D01*
X3577246Y-493028D01*
Y-476100D01*
X3573014Y-471868D01*
X3560318D01*
X3598406Y-497260D02*
X3589942D01*
X3585710Y-493028D01*
Y-484564D01*
X3589942Y-480332D01*
X3598406D01*
X3602638Y-484564D01*
Y-488796D01*
X3585710D01*
X3611102Y-497260D02*
X3623798D01*
X3628029Y-493028D01*
X3623798Y-488796D01*
X3615334D01*
X3611102Y-484564D01*
X3615334Y-480332D01*
X3628029D01*
X3636494Y-497260D02*
X3644957D01*
X3640725D01*
Y-480332D01*
X3636494D01*
X3666117Y-505724D02*
X3670349D01*
X3674581Y-501492D01*
Y-480332D01*
X3661885D01*
X3657653Y-484564D01*
Y-493028D01*
X3661885Y-497260D01*
X3674581D01*
X3683045D02*
Y-480332D01*
X3695741D01*
X3699973Y-484564D01*
Y-497260D01*
X3733829D02*
Y-471868D01*
X3746524D01*
X3750757Y-476100D01*
Y-484564D01*
X3746524Y-488796D01*
X3733829D01*
X3763452Y-480332D02*
X3771916D01*
X3776148Y-484564D01*
Y-497260D01*
X3763452D01*
X3759220Y-493028D01*
X3763452Y-488796D01*
X3776148D01*
X3784612Y-480332D02*
Y-497260D01*
Y-488796D01*
X3788844Y-484564D01*
X3793076Y-480332D01*
X3797308D01*
X3814236Y-476100D02*
Y-480332D01*
X3810004D01*
X3818468D01*
X3814236D01*
Y-493028D01*
X3818468Y-497260D01*
X3831164D02*
Y-480332D01*
X3843860D01*
X3848092Y-484564D01*
Y-497260D01*
X3869251D02*
X3860788D01*
X3856555Y-493028D01*
Y-484564D01*
X3860788Y-480332D01*
X3869251D01*
X3873484Y-484564D01*
Y-488796D01*
X3856555D01*
X3881947Y-480332D02*
Y-497260D01*
Y-488796D01*
X3886180Y-484564D01*
X3890411Y-480332D01*
X3894643D01*
X3907339D02*
X3911571D01*
Y-484564D01*
X3907339D01*
Y-480332D01*
Y-493028D02*
X3911571D01*
Y-497260D01*
X3907339D01*
Y-493028D01*
X3560318Y-701101D02*
Y-721414D01*
X3573860D01*
X3580631D02*
Y-707872D01*
X3587403Y-701101D01*
X3594174Y-707872D01*
Y-721414D01*
Y-711257D01*
X3580631D01*
X3600945Y-701101D02*
Y-704486D01*
X3607716Y-711257D01*
X3614487Y-704486D01*
Y-701101D01*
X3607716Y-711257D02*
Y-721414D01*
X3634801Y-701101D02*
X3621258D01*
Y-721414D01*
X3634801D01*
X3621258Y-711257D02*
X3628029D01*
X3641572Y-721414D02*
Y-701101D01*
X3651729D01*
X3655114Y-704486D01*
Y-711257D01*
X3651729Y-714643D01*
X3641572D01*
X3648343D02*
X3655114Y-721414D01*
X3682198D02*
Y-701101D01*
X3695741Y-721414D01*
Y-701101D01*
X3702512Y-721414D02*
Y-707872D01*
X3709283Y-701101D01*
X3716054Y-707872D01*
Y-721414D01*
Y-711257D01*
X3702512D01*
X3722825Y-721414D02*
Y-701101D01*
X3729597Y-707872D01*
X3736368Y-701101D01*
Y-721414D01*
X3756681Y-701101D02*
X3743139D01*
Y-721414D01*
X3756681D01*
X3743139Y-711257D02*
X3749910D01*
X3763452Y-707872D02*
X3766838D01*
Y-711257D01*
X3763452D01*
Y-707872D01*
Y-718028D02*
X3766838D01*
Y-721414D01*
X3763452D01*
Y-718028D01*
X3283458Y-795788D02*
Y-813562D01*
X3292345D01*
X3295308Y-810600D01*
Y-798750D01*
X3292345Y-795788D01*
X3283458D01*
X3301232Y-813562D02*
Y-795788D01*
X3310119D01*
X3313082Y-798750D01*
Y-804675D01*
X3310119Y-807637D01*
X3301232D01*
X3307157D02*
X3313082Y-813562D01*
X3319006D02*
Y-801712D01*
X3324931Y-795788D01*
X3330856Y-801712D01*
Y-813562D01*
Y-804675D01*
X3319006D01*
X3336781Y-795788D02*
Y-813562D01*
X3342705Y-807637D01*
X3348630Y-813562D01*
Y-795788D01*
X3354555D02*
X3360480D01*
X3357517D01*
Y-813562D01*
X3354555D01*
X3360480D01*
X3369367D02*
Y-795788D01*
X3381216Y-813562D01*
Y-795788D01*
X3398991Y-798750D02*
X3396028Y-795788D01*
X3390103D01*
X3387141Y-798750D01*
Y-810600D01*
X3390103Y-813562D01*
X3396028D01*
X3398991Y-810600D01*
Y-804675D01*
X3393066D01*
X3245358Y-770388D02*
Y-788162D01*
X3254245D01*
X3257208Y-785200D01*
Y-773350D01*
X3254245Y-770388D01*
X3245358D01*
X3272019D02*
X3266095D01*
X3263132Y-773350D01*
Y-785200D01*
X3266095Y-788162D01*
X3272019D01*
X3274982Y-785200D01*
Y-773350D01*
X3272019Y-770388D01*
X3298681Y-788162D02*
Y-770388D01*
X3310530Y-788162D01*
Y-770388D01*
X3325342D02*
X3319417D01*
X3316455Y-773350D01*
Y-785200D01*
X3319417Y-788162D01*
X3325342D01*
X3328304Y-785200D01*
Y-773350D01*
X3325342Y-770388D01*
X3334229D02*
X3346079D01*
X3340154D01*
Y-788162D01*
X3381627Y-773350D02*
X3378665Y-770388D01*
X3372740D01*
X3369778Y-773350D01*
Y-776312D01*
X3372740Y-779275D01*
X3378665D01*
X3381627Y-782237D01*
Y-785200D01*
X3378665Y-788162D01*
X3372740D01*
X3369778Y-785200D01*
X3399402Y-773350D02*
X3396439Y-770388D01*
X3390515D01*
X3387552Y-773350D01*
Y-785200D01*
X3390515Y-788162D01*
X3396439D01*
X3399402Y-785200D01*
X3405326Y-788162D02*
Y-776312D01*
X3411251Y-770388D01*
X3417176Y-776312D01*
Y-788162D01*
Y-779275D01*
X3405326D01*
X3423101Y-770388D02*
Y-788162D01*
X3434950D01*
X3452724Y-770388D02*
X3440875D01*
Y-788162D01*
X3452724D01*
X3440875Y-779275D02*
X3446800D01*
X3029458Y-800862D02*
X3035383D01*
X3032420D01*
Y-783088D01*
X3029458Y-786050D01*
X3044270Y-789013D02*
X3047232D01*
Y-791975D01*
X3044270D01*
Y-789013D01*
Y-797900D02*
X3047232D01*
Y-800862D01*
X3044270D01*
Y-797900D01*
X3059082Y-800862D02*
X3065006D01*
X3062044D01*
Y-783088D01*
X3059082Y-786050D01*
X3804158Y-807212D02*
Y-791977D01*
X3811776Y-784359D01*
X3819393Y-791977D01*
Y-807212D01*
Y-795786D01*
X3804158D01*
X3842246Y-807212D02*
X3827010D01*
X3842246Y-791977D01*
Y-788168D01*
X3838437Y-784359D01*
X3830819D01*
X3827010Y-788168D01*
X3308858Y-493950D02*
X3311820Y-490988D01*
X3317745D01*
X3320707Y-493950D01*
Y-505800D01*
X3317745Y-508762D01*
X3311820D01*
X3308858Y-505800D01*
Y-493950D01*
X3326632Y-505800D02*
X3329595Y-508762D01*
X3335519D01*
X3338482Y-505800D01*
Y-493950D01*
X3335519Y-490988D01*
X3329595D01*
X3326632Y-493950D01*
Y-496912D01*
X3329595Y-499875D01*
X3338482D01*
X3344406D02*
X3356256D01*
X3362181Y-508762D02*
Y-490988D01*
X3368105Y-496912D01*
X3374030Y-490988D01*
Y-508762D01*
X3382917Y-496912D02*
X3388842D01*
X3391805Y-499875D01*
Y-508762D01*
X3382917D01*
X3379955Y-505800D01*
X3382917Y-502837D01*
X3391805D01*
X3397729Y-496912D02*
Y-505800D01*
X3400692Y-508762D01*
X3409579D01*
Y-511724D01*
X3406617Y-514687D01*
X3403654D01*
X3409579Y-508762D02*
Y-496912D01*
X3415504Y-499875D02*
X3427353D01*
X3445127Y-508762D02*
X3433278D01*
X3445127Y-496912D01*
Y-493950D01*
X3442165Y-490988D01*
X3436240D01*
X3433278Y-493950D01*
X3451052D02*
X3454015Y-490988D01*
X3459939D01*
X3462902Y-493950D01*
Y-505800D01*
X3459939Y-508762D01*
X3454015D01*
X3451052Y-505800D01*
Y-493950D01*
X3308858Y-570150D02*
X3311820Y-567188D01*
X3317745D01*
X3320707Y-570150D01*
Y-582000D01*
X3317745Y-584962D01*
X3311820D01*
X3308858Y-582000D01*
Y-570150D01*
X3326632Y-582000D02*
X3329595Y-584962D01*
X3335519D01*
X3338482Y-582000D01*
Y-570150D01*
X3335519Y-567188D01*
X3329595D01*
X3326632Y-570150D01*
Y-573112D01*
X3329595Y-576075D01*
X3338482D01*
X3344406D02*
X3356256D01*
X3362181Y-584962D02*
Y-567188D01*
X3368105Y-573112D01*
X3374030Y-567188D01*
Y-584962D01*
X3382917Y-573112D02*
X3388842D01*
X3391805Y-576075D01*
Y-584962D01*
X3382917D01*
X3379955Y-582000D01*
X3382917Y-579037D01*
X3391805D01*
X3397729Y-573112D02*
Y-582000D01*
X3400692Y-584962D01*
X3409579D01*
Y-587924D01*
X3406617Y-590887D01*
X3403654D01*
X3409579Y-584962D02*
Y-573112D01*
X3415504Y-576075D02*
X3427353D01*
X3445127Y-584962D02*
X3433278D01*
X3445127Y-573112D01*
Y-570150D01*
X3442165Y-567188D01*
X3436240D01*
X3433278Y-570150D01*
X3451052D02*
X3454015Y-567188D01*
X3459939D01*
X3462902Y-570150D01*
Y-582000D01*
X3459939Y-584962D01*
X3454015D01*
X3451052Y-582000D01*
Y-570150D01*
X3308858Y-646350D02*
X3311820Y-643388D01*
X3317745D01*
X3320707Y-646350D01*
Y-658200D01*
X3317745Y-661162D01*
X3311820D01*
X3308858Y-658200D01*
Y-646350D01*
X3326632Y-658200D02*
X3329595Y-661162D01*
X3335519D01*
X3338482Y-658200D01*
Y-646350D01*
X3335519Y-643388D01*
X3329595D01*
X3326632Y-646350D01*
Y-649313D01*
X3329595Y-652275D01*
X3338482D01*
X3344406D02*
X3356256D01*
X3362181Y-661162D02*
Y-643388D01*
X3368105Y-649313D01*
X3374030Y-643388D01*
Y-661162D01*
X3382917Y-649313D02*
X3388842D01*
X3391805Y-652275D01*
Y-661162D01*
X3382917D01*
X3379955Y-658200D01*
X3382917Y-655237D01*
X3391805D01*
X3397729Y-649313D02*
Y-658200D01*
X3400692Y-661162D01*
X3409579D01*
Y-664124D01*
X3406617Y-667087D01*
X3403654D01*
X3409579Y-661162D02*
Y-649313D01*
X3415504Y-652275D02*
X3427353D01*
X3445127Y-661162D02*
X3433278D01*
X3445127Y-649313D01*
Y-646350D01*
X3442165Y-643388D01*
X3436240D01*
X3433278Y-646350D01*
X3451052D02*
X3454015Y-643388D01*
X3459939D01*
X3462902Y-646350D01*
Y-658200D01*
X3459939Y-661162D01*
X3454015D01*
X3451052Y-658200D01*
Y-646350D01*
X4376928Y-807212D02*
X4382853D01*
X4379890D01*
Y-789438D01*
X4376928Y-792400D01*
X4391740Y-807212D02*
Y-804250D01*
X4394702D01*
Y-807212D01*
X4391740D01*
X4406552Y-792400D02*
X4409514Y-789438D01*
X4415439D01*
X4418401Y-792400D01*
Y-804250D01*
X4415439Y-807212D01*
X4409514D01*
X4406552Y-804250D01*
Y-792400D01*
X2623058Y-478288D02*
Y-493100D01*
X2626021Y-496062D01*
X2631945D01*
X2634908Y-493100D01*
Y-478288D01*
X2640832Y-496062D02*
Y-478288D01*
X2652682Y-496062D01*
Y-478288D01*
X2658607D02*
Y-496062D01*
X2670456D01*
X2688230Y-478288D02*
X2676381D01*
Y-496062D01*
X2688230D01*
X2676381Y-487175D02*
X2682306D01*
X2706005Y-481250D02*
X2703042Y-478288D01*
X2697117D01*
X2694155Y-481250D01*
Y-484212D01*
X2697117Y-487175D01*
X2703042D01*
X2706005Y-490137D01*
Y-493100D01*
X2703042Y-496062D01*
X2697117D01*
X2694155Y-493100D01*
X2723779Y-481250D02*
X2720816Y-478288D01*
X2714892D01*
X2711929Y-481250D01*
Y-484212D01*
X2714892Y-487175D01*
X2720816D01*
X2723779Y-490137D01*
Y-493100D01*
X2720816Y-496062D01*
X2714892D01*
X2711929Y-493100D01*
X2756365Y-478288D02*
X2750440D01*
X2747478Y-481250D01*
Y-493100D01*
X2750440Y-496062D01*
X2756365D01*
X2759327Y-493100D01*
Y-481250D01*
X2756365Y-478288D01*
X2765252D02*
X2777102D01*
X2771177D01*
Y-496062D01*
X2783026Y-478288D02*
Y-496062D01*
Y-487175D01*
X2794876D01*
Y-478288D01*
Y-496062D01*
X2812650Y-478288D02*
X2800800D01*
Y-496062D01*
X2812650D01*
X2800800Y-487175D02*
X2806725D01*
X2818575Y-496062D02*
Y-478288D01*
X2827462D01*
X2830424Y-481250D01*
Y-487175D01*
X2827462Y-490137D01*
X2818575D01*
X2824500D02*
X2830424Y-496062D01*
X2836349Y-478288D02*
Y-496062D01*
X2842274Y-490137D01*
X2848199Y-496062D01*
Y-478288D01*
X2854124D02*
X2860048D01*
X2857086D01*
Y-496062D01*
X2854124D01*
X2860048D01*
X2880785Y-481250D02*
X2877822Y-478288D01*
X2871898D01*
X2868935Y-481250D01*
Y-484212D01*
X2871898Y-487175D01*
X2877822D01*
X2880785Y-490137D01*
Y-493100D01*
X2877822Y-496062D01*
X2871898D01*
X2868935Y-493100D01*
X2898559Y-478288D02*
X2886710D01*
Y-496062D01*
X2898559D01*
X2886710Y-487175D02*
X2892634D01*
X2698408Y-506650D02*
X2695445Y-503688D01*
X2689520D01*
X2686558Y-506650D01*
Y-509613D01*
X2689520Y-512575D01*
X2695445D01*
X2698408Y-515537D01*
Y-518500D01*
X2695445Y-521462D01*
X2689520D01*
X2686558Y-518500D01*
X2704332Y-521462D02*
Y-503688D01*
X2713219D01*
X2716182Y-506650D01*
Y-512575D01*
X2713219Y-515537D01*
X2704332D01*
X2733956Y-503688D02*
X2722107D01*
Y-521462D01*
X2733956D01*
X2722107Y-512575D02*
X2728031D01*
X2751730Y-506650D02*
X2748768Y-503688D01*
X2742843D01*
X2739881Y-506650D01*
Y-518500D01*
X2742843Y-521462D01*
X2748768D01*
X2751730Y-518500D01*
X2757655Y-503688D02*
X2763580D01*
X2760617D01*
Y-521462D01*
X2757655D01*
X2763580D01*
X2784316Y-503688D02*
X2772467D01*
Y-512575D01*
X2778392D01*
X2772467D01*
Y-521462D01*
X2790241Y-503688D02*
X2796166D01*
X2793204D01*
Y-521462D01*
X2790241D01*
X2796166D01*
X2816902Y-503688D02*
X2805053D01*
Y-521462D01*
X2816902D01*
X2805053Y-512575D02*
X2810978D01*
X2822827Y-503688D02*
Y-521462D01*
X2831714D01*
X2834677Y-518500D01*
Y-506650D01*
X2831714Y-503688D01*
X2822827D01*
X2840602Y-509613D02*
X2843564D01*
Y-512575D01*
X2840602D01*
Y-509613D01*
Y-518500D02*
X2843564D01*
Y-521462D01*
X2840602D01*
Y-518500D01*
X2610358Y-559562D02*
Y-547713D01*
X2616283Y-541788D01*
X2622208Y-547713D01*
Y-559562D01*
Y-550675D01*
X2610358D01*
X2628132Y-541788D02*
Y-559562D01*
X2639982D01*
X2645906Y-541788D02*
Y-559562D01*
X2657756D01*
X2681455Y-541788D02*
Y-559562D01*
X2690342D01*
X2693304Y-556600D01*
Y-544750D01*
X2690342Y-541788D01*
X2681455D01*
X2699229D02*
X2705154D01*
X2702192D01*
Y-559562D01*
X2699229D01*
X2705154D01*
X2714041D02*
Y-541788D01*
X2719966Y-547713D01*
X2725891Y-541788D01*
Y-559562D01*
X2743665Y-541788D02*
X2731815D01*
Y-559562D01*
X2743665D01*
X2731815Y-550675D02*
X2737740D01*
X2749590Y-559562D02*
Y-541788D01*
X2761439Y-559562D01*
Y-541788D01*
X2779214Y-544750D02*
X2776251Y-541788D01*
X2770326D01*
X2767364Y-544750D01*
Y-547713D01*
X2770326Y-550675D01*
X2776251D01*
X2779214Y-553637D01*
Y-556600D01*
X2776251Y-559562D01*
X2770326D01*
X2767364Y-556600D01*
X2785138Y-541788D02*
X2791063D01*
X2788101D01*
Y-559562D01*
X2785138D01*
X2791063D01*
X2808837Y-541788D02*
X2802913D01*
X2799950Y-544750D01*
Y-556600D01*
X2802913Y-559562D01*
X2808837D01*
X2811800Y-556600D01*
Y-544750D01*
X2808837Y-541788D01*
X2817724Y-559562D02*
Y-541788D01*
X2829574Y-559562D01*
Y-541788D01*
X2847348Y-544750D02*
X2844386Y-541788D01*
X2838461D01*
X2835499Y-544750D01*
Y-547713D01*
X2838461Y-550675D01*
X2844386D01*
X2847348Y-553637D01*
Y-556600D01*
X2844386Y-559562D01*
X2838461D01*
X2835499Y-556600D01*
X2871047Y-559562D02*
Y-547713D01*
X2876972Y-541788D01*
X2882897Y-547713D01*
Y-559562D01*
Y-550675D01*
X2871047D01*
X2888821Y-559562D02*
Y-541788D01*
X2897708D01*
X2900671Y-544750D01*
Y-550675D01*
X2897708Y-553637D01*
X2888821D01*
X2894746D02*
X2900671Y-559562D01*
X2918445Y-541788D02*
X2906596D01*
Y-559562D01*
X2918445D01*
X2906596Y-550675D02*
X2912520D01*
X2680970Y-571760D02*
X2686895D01*
X2683932D01*
Y-589534D01*
X2680970D01*
X2686895D01*
X2695782D02*
Y-571760D01*
X2707632Y-589534D01*
Y-571760D01*
X2731330D02*
X2737255D01*
X2734293D01*
Y-589534D01*
X2731330D01*
X2737255D01*
X2746142D02*
Y-571760D01*
X2757992Y-589534D01*
Y-571760D01*
X2775766Y-574722D02*
X2772804Y-571760D01*
X2766879D01*
X2763917Y-574722D01*
Y-586572D01*
X2766879Y-589534D01*
X2772804D01*
X2775766Y-586572D01*
X2781691Y-571760D02*
Y-589534D01*
Y-580647D01*
X2793540D01*
Y-571760D01*
Y-589534D01*
X2811315Y-571760D02*
X2799465D01*
Y-589534D01*
X2811315D01*
X2799465Y-580647D02*
X2805390D01*
X2829089Y-574722D02*
X2826126Y-571760D01*
X2820202D01*
X2817239Y-574722D01*
Y-577685D01*
X2820202Y-580647D01*
X2826126D01*
X2829089Y-583609D01*
Y-586572D01*
X2826126Y-589534D01*
X2820202D01*
X2817239Y-586572D01*
X2668270Y-609860D02*
X2680120D01*
X2674195D01*
Y-627634D01*
X2694931Y-609860D02*
X2689007D01*
X2686044Y-612822D01*
Y-624672D01*
X2689007Y-627634D01*
X2694931D01*
X2697894Y-624672D01*
Y-612822D01*
X2694931Y-609860D01*
X2703818D02*
Y-627634D01*
X2715668D01*
X2733442Y-609860D02*
X2721593D01*
Y-627634D01*
X2733442D01*
X2721593Y-618747D02*
X2727517D01*
X2739367Y-627634D02*
Y-609860D01*
X2748254D01*
X2751216Y-612822D01*
Y-618747D01*
X2748254Y-621709D01*
X2739367D01*
X2745292D02*
X2751216Y-627634D01*
X2757141D02*
Y-615784D01*
X2763066Y-609860D01*
X2768991Y-615784D01*
Y-627634D01*
Y-618747D01*
X2757141D01*
X2774915Y-627634D02*
Y-609860D01*
X2786765Y-627634D01*
Y-609860D01*
X2804539Y-612822D02*
X2801577Y-609860D01*
X2795652D01*
X2792690Y-612822D01*
Y-624672D01*
X2795652Y-627634D01*
X2801577D01*
X2804539Y-624672D01*
X2822314Y-609860D02*
X2810464D01*
Y-627634D01*
X2822314D01*
X2810464Y-618747D02*
X2816389D01*
X2840088Y-612822D02*
X2837126Y-609860D01*
X2831201D01*
X2828238Y-612822D01*
Y-615784D01*
X2831201Y-618747D01*
X2837126D01*
X2840088Y-621709D01*
Y-624672D01*
X2837126Y-627634D01*
X2831201D01*
X2828238Y-624672D01*
X2686895Y-653034D02*
X2680970Y-647109D01*
Y-641184D01*
X2686895Y-635260D01*
X2695782D02*
Y-653034D01*
X2704669D01*
X2707632Y-650072D01*
Y-638222D01*
X2704669Y-635260D01*
X2695782D01*
X2725406D02*
X2713556D01*
Y-653034D01*
X2725406D01*
X2713556Y-644147D02*
X2719481D01*
X2743180Y-638222D02*
X2740218Y-635260D01*
X2734293D01*
X2731330Y-638222D01*
Y-650072D01*
X2734293Y-653034D01*
X2740218D01*
X2743180Y-650072D01*
X2749105Y-635260D02*
X2755029D01*
X2752067D01*
Y-653034D01*
X2749105D01*
X2755029D01*
X2763917D02*
Y-635260D01*
X2769841Y-641184D01*
X2775766Y-635260D01*
Y-653034D01*
X2781691D02*
Y-641184D01*
X2787616Y-635260D01*
X2793540Y-641184D01*
Y-653034D01*
Y-644147D01*
X2781691D01*
X2799465Y-635260D02*
Y-653034D01*
X2811315D01*
X2817239D02*
X2823164Y-647109D01*
Y-641184D01*
X2817239Y-635260D01*
X2832051Y-641184D02*
X2835014D01*
Y-644147D01*
X2832051D01*
Y-641184D01*
Y-650072D02*
X2835014D01*
Y-653034D01*
X2832051D01*
Y-650072D01*
X2680970Y-691134D02*
Y-688172D01*
X2683932D01*
Y-691134D01*
X2680970D01*
X2695782Y-673360D02*
X2707632Y-691134D01*
Y-673360D02*
X2695782Y-691134D01*
X2731330Y-682247D02*
X2743180D01*
X2737255Y-676322D02*
Y-688172D01*
X2749105Y-691134D02*
X2760954Y-679285D01*
X2766879Y-682247D02*
X2778728D01*
X2784653Y-676322D02*
X2787616Y-673360D01*
X2793540D01*
X2796503Y-676322D01*
Y-688172D01*
X2793540Y-691134D01*
X2787616D01*
X2784653Y-688172D01*
Y-676322D01*
X2802427Y-691134D02*
Y-688172D01*
X2805390D01*
Y-691134D01*
X2802427D01*
X2817239D02*
X2823164D01*
X2820202D01*
Y-673360D01*
X2817239Y-676322D01*
X2668270Y-716534D02*
Y-713572D01*
X2671232D01*
Y-716534D01*
X2668270D01*
X2683082Y-698760D02*
X2694931Y-716534D01*
Y-698760D02*
X2683082Y-716534D01*
X2700856Y-698760D02*
X2712706Y-716534D01*
Y-698760D02*
X2700856Y-716534D01*
X2736405Y-707647D02*
X2748254D01*
X2742329Y-701722D02*
Y-713572D01*
X2754179Y-716534D02*
X2766028Y-704685D01*
X2771953Y-707647D02*
X2783803D01*
X2789727Y-701722D02*
X2792690Y-698760D01*
X2798615D01*
X2801577Y-701722D01*
Y-713572D01*
X2798615Y-716534D01*
X2792690D01*
X2789727Y-713572D01*
Y-701722D01*
X2807502Y-716534D02*
Y-713572D01*
X2810464D01*
Y-716534D01*
X2807502D01*
X2822314Y-701722D02*
X2825276Y-698760D01*
X2831201D01*
X2834163Y-701722D01*
Y-713572D01*
X2831201Y-716534D01*
X2825276D01*
X2822314Y-713572D01*
Y-701722D01*
X2840088Y-716534D02*
X2846013D01*
X2843050D01*
Y-698760D01*
X2840088Y-701722D01*
X2642870Y-741934D02*
Y-738972D01*
X2645833D01*
Y-741934D01*
X2642870D01*
X2657682Y-724160D02*
X2669531Y-741934D01*
Y-724160D02*
X2657682Y-741934D01*
X2675456Y-724160D02*
X2687306Y-741934D01*
Y-724160D02*
X2675456Y-741934D01*
X2693230Y-724160D02*
X2705080Y-741934D01*
Y-724160D02*
X2693230Y-741934D01*
X2728779Y-733047D02*
X2740628D01*
X2734704Y-727122D02*
Y-738972D01*
X2746553Y-741934D02*
X2758403Y-730085D01*
X2764327Y-733047D02*
X2776177D01*
X2782102Y-727122D02*
X2785064Y-724160D01*
X2790989D01*
X2793951Y-727122D01*
Y-738972D01*
X2790989Y-741934D01*
X2785064D01*
X2782102Y-738972D01*
Y-727122D01*
X2799876Y-741934D02*
Y-738972D01*
X2802838D01*
Y-741934D01*
X2799876D01*
X2814688Y-727122D02*
X2817650Y-724160D01*
X2823575D01*
X2826537Y-727122D01*
Y-738972D01*
X2823575Y-741934D01*
X2817650D01*
X2814688Y-738972D01*
Y-727122D01*
X2832462D02*
X2835424Y-724160D01*
X2841349D01*
X2844312Y-727122D01*
Y-738972D01*
X2841349Y-741934D01*
X2835424D01*
X2832462Y-738972D01*
Y-727122D01*
X2862086Y-724160D02*
X2850237D01*
Y-733047D01*
X2856161Y-730085D01*
X2859124D01*
X2862086Y-733047D01*
Y-738972D01*
X2859124Y-741934D01*
X2853199D01*
X2850237Y-738972D01*
X2642870Y-780034D02*
Y-768185D01*
X2648795Y-762260D01*
X2654720Y-768185D01*
Y-780034D01*
Y-771147D01*
X2642870D01*
X2660644Y-780034D02*
Y-762260D01*
X2672494Y-780034D01*
Y-762260D01*
X2690268Y-765222D02*
X2687306Y-762260D01*
X2681381D01*
X2678419Y-765222D01*
Y-777072D01*
X2681381Y-780034D01*
X2687306D01*
X2690268Y-777072D01*
Y-771147D01*
X2684343D01*
X2696193Y-762260D02*
Y-780034D01*
X2708042D01*
X2725817Y-762260D02*
X2713967D01*
Y-780034D01*
X2725817D01*
X2713967Y-771147D02*
X2719892D01*
X2743591Y-765222D02*
X2740628Y-762260D01*
X2734704D01*
X2731741Y-765222D01*
Y-768185D01*
X2734704Y-771147D01*
X2740628D01*
X2743591Y-774109D01*
Y-777072D01*
X2740628Y-780034D01*
X2734704D01*
X2731741Y-777072D01*
X2767290Y-771147D02*
X2779139D01*
X2773215Y-765222D02*
Y-777072D01*
X2785064Y-780034D02*
X2796913Y-768185D01*
X2802838Y-771147D02*
X2814688D01*
X2820612Y-765222D02*
X2823575Y-762260D01*
X2829500D01*
X2832462Y-765222D01*
Y-777072D01*
X2829500Y-780034D01*
X2823575D01*
X2820612Y-777072D01*
Y-765222D01*
X2838387Y-780034D02*
Y-777072D01*
X2841349D01*
Y-780034D01*
X2838387D01*
X2865048Y-762260D02*
X2853199D01*
Y-771147D01*
X2859124Y-768185D01*
X2862086D01*
X2865048Y-771147D01*
Y-777072D01*
X2862086Y-780034D01*
X2856161D01*
X2853199Y-777072D01*
D13*
X3308858Y-826262D02*
X4451858D01*
Y-521462D01*
Y94488D02*
X4528058D01*
X4451858Y1091438D02*
X4528058D01*
X4451858Y2088388D02*
X4528058D01*
X3819398Y-902462D02*
Y-826262D01*
X3112008Y-902462D02*
Y-826262D01*
X2403348Y-902462D02*
Y-826262D01*
X1695958Y-902462D02*
Y-826262D01*
X987298Y-902462D02*
Y-826262D01*
X278638Y-902462D02*
Y-826262D01*
X-427482Y-902462D02*
Y-826262D01*
X-1136142Y94488D02*
X-1059942D01*
X-1136142Y1091438D02*
X-1059942D01*
X-1136142Y2088388D02*
X-1059942D01*
X3819398Y3009138D02*
Y3085338D01*
X3112008Y3009138D02*
Y3085338D01*
X2403348Y3009138D02*
Y3085338D01*
X1695958Y3009138D02*
Y3085338D01*
X987298Y3009138D02*
Y3085338D01*
X278638Y3009138D02*
Y3085338D01*
X-427482Y3009138D02*
Y3085338D01*
X-1059942Y3009138D02*
X4451858D01*
Y-826262D02*
Y3009138D01*
X-1059942Y-826262D02*
X4451858D01*
X-1059942D02*
Y3009138D01*
X-1136142Y3085338D02*
X4528058D01*
Y-902462D02*
Y3085338D01*
X-1136142Y-902462D02*
X4528058D01*
X-1136142D02*
Y3085338D01*
D14*
X3308858Y-611636D02*
Y-623062D01*
X3314571D01*
X3316476Y-621158D01*
Y-613540D01*
X3314571Y-611636D01*
X3308858D01*
X3320284Y-623062D02*
Y-615444D01*
X3324093Y-611636D01*
X3327902Y-615444D01*
Y-623062D01*
Y-617349D01*
X3320284D01*
X3331711Y-611636D02*
X3339328D01*
X3335519D01*
Y-623062D01*
X3350754Y-611636D02*
X3343137D01*
Y-623062D01*
X3350754D01*
X3343137Y-617349D02*
X3346946D01*
X3308858Y-535436D02*
Y-546862D01*
X3314571D01*
X3316476Y-544958D01*
Y-537340D01*
X3314571Y-535436D01*
X3308858D01*
X3320284Y-546862D02*
Y-539244D01*
X3324093Y-535436D01*
X3327902Y-539244D01*
Y-546862D01*
Y-541149D01*
X3320284D01*
X3331711Y-535436D02*
X3339328D01*
X3335519D01*
Y-546862D01*
X3350754Y-535436D02*
X3343137D01*
Y-546862D01*
X3350754D01*
X3343137Y-541149D02*
X3346946D01*
X3308858Y-459236D02*
Y-470662D01*
X3314571D01*
X3316476Y-468758D01*
Y-461140D01*
X3314571Y-459236D01*
X3308858D01*
X3320284Y-470662D02*
Y-463045D01*
X3324093Y-459236D01*
X3327902Y-463045D01*
Y-470662D01*
Y-464949D01*
X3320284D01*
X3331711Y-459236D02*
X3339328D01*
X3335519D01*
Y-470662D01*
X3350754Y-459236D02*
X3343137D01*
Y-470662D01*
X3350754D01*
X3343137Y-464949D02*
X3346946D01*
X2953258Y-459236D02*
Y-470662D01*
X2958971D01*
X2960876Y-468758D01*
Y-461140D01*
X2958971Y-459236D01*
X2953258D01*
X2964684Y-463045D02*
Y-470662D01*
Y-466853D01*
X2966589Y-464949D01*
X2968493Y-463045D01*
X2970398D01*
X2978015D02*
X2981824D01*
X2983728Y-464949D01*
Y-470662D01*
X2978015D01*
X2976111Y-468758D01*
X2978015Y-466853D01*
X2983728D01*
X2987537Y-463045D02*
Y-468758D01*
X2989441Y-470662D01*
X2991346Y-468758D01*
X2993250Y-470662D01*
X2995154Y-468758D01*
Y-463045D01*
X2998963Y-470662D02*
Y-463045D01*
X3004677D01*
X3006581Y-464949D01*
Y-470662D01*
X3021816Y-459236D02*
Y-470662D01*
X3027529D01*
X3029433Y-468758D01*
Y-466853D01*
X3027529Y-464949D01*
X3021816D01*
X3027529D01*
X3029433Y-463045D01*
Y-461140D01*
X3027529Y-459236D01*
X3021816D01*
X3033242Y-463045D02*
Y-468758D01*
X3035146Y-470662D01*
X3040860D01*
Y-472566D01*
X3038955Y-474471D01*
X3037051D01*
X3040860Y-470662D02*
Y-463045D01*
X2948686Y-535436D02*
Y-546862D01*
X2954399D01*
X2956303Y-544958D01*
Y-537340D01*
X2954399Y-535436D01*
X2948686D01*
X2965826Y-546862D02*
X2962017D01*
X2960112Y-544958D01*
Y-541149D01*
X2962017Y-539244D01*
X2965826D01*
X2967730Y-541149D01*
Y-543053D01*
X2960112D01*
X2971539Y-546862D02*
X2977252D01*
X2979156Y-544958D01*
X2977252Y-543053D01*
X2973443D01*
X2971539Y-541149D01*
X2973443Y-539244D01*
X2979156D01*
X2982965Y-546862D02*
X2986774D01*
X2984869D01*
Y-539244D01*
X2982965D01*
X2996296Y-550671D02*
X2998200D01*
X3000104Y-548766D01*
Y-539244D01*
X2994391D01*
X2992487Y-541149D01*
Y-544958D01*
X2994391Y-546862D01*
X3000104D01*
X3003913D02*
Y-539244D01*
X3009626D01*
X3011531Y-541149D01*
Y-546862D01*
X3021053D02*
X3017244D01*
X3015339Y-544958D01*
Y-541149D01*
X3017244Y-539244D01*
X3021053D01*
X3022957Y-541149D01*
Y-543053D01*
X3015339D01*
X3034384Y-535436D02*
Y-546862D01*
X3028670D01*
X3026766Y-544958D01*
Y-541149D01*
X3028670Y-539244D01*
X3034384D01*
X3049619Y-535436D02*
Y-546862D01*
X3055332D01*
X3057236Y-544958D01*
Y-543053D01*
X3055332Y-541149D01*
X3049619D01*
X3055332D01*
X3057236Y-539244D01*
Y-537340D01*
X3055332Y-535436D01*
X3049619D01*
X3061045Y-539244D02*
Y-544958D01*
X3062949Y-546862D01*
X3068662D01*
Y-548766D01*
X3066758Y-550671D01*
X3064854D01*
X3068662Y-546862D02*
Y-539244D01*
X2956303Y-613540D02*
X2954399Y-611636D01*
X2950591D01*
X2948686Y-613540D01*
Y-621158D01*
X2950591Y-623062D01*
X2954399D01*
X2956303Y-621158D01*
X2960112Y-611636D02*
Y-623062D01*
Y-617349D01*
X2962017Y-615444D01*
X2965826D01*
X2967730Y-617349D01*
Y-623062D01*
X2977252D02*
X2973443D01*
X2971539Y-621158D01*
Y-617349D01*
X2973443Y-615444D01*
X2977252D01*
X2979156Y-617349D01*
Y-619253D01*
X2971539D01*
X2990583Y-615444D02*
X2984869D01*
X2982965Y-617349D01*
Y-621158D01*
X2984869Y-623062D01*
X2990583D01*
X2994391D02*
Y-611636D01*
Y-619253D02*
X3000104Y-615444D01*
X2994391Y-619253D02*
X3000104Y-623062D01*
X3011531D02*
X3007722D01*
X3005818Y-621158D01*
Y-617349D01*
X3007722Y-615444D01*
X3011531D01*
X3013435Y-617349D01*
Y-619253D01*
X3005818D01*
X3024861Y-611636D02*
Y-623062D01*
X3019148D01*
X3017244Y-621158D01*
Y-617349D01*
X3019148Y-615444D01*
X3024861D01*
X3040096Y-611636D02*
Y-623062D01*
X3045810D01*
X3047714Y-621158D01*
Y-619253D01*
X3045810Y-617349D01*
X3040096D01*
X3045810D01*
X3047714Y-615444D01*
Y-613540D01*
X3045810Y-611636D01*
X3040096D01*
X3051523Y-615444D02*
Y-621158D01*
X3053427Y-623062D01*
X3059140D01*
Y-624966D01*
X3057236Y-626871D01*
X3055332D01*
X3059140Y-623062D02*
Y-615444D01*
X2953258Y-699262D02*
Y-687836D01*
X2958971D01*
X2960876Y-689740D01*
Y-693549D01*
X2958971Y-695453D01*
X2953258D01*
X2957067D02*
X2960876Y-699262D01*
X2972302Y-687836D02*
X2964684D01*
Y-699262D01*
X2972302D01*
X2964684Y-693549D02*
X2968493D01*
X2983728Y-687836D02*
X2976111D01*
Y-693549D01*
X2979919D01*
X2976111D01*
Y-699262D01*
X2998963Y-687836D02*
X3002772D01*
X3000868D01*
Y-699262D01*
X2998963D01*
X3002772D01*
X3008485Y-687836D02*
Y-699262D01*
X3014198D01*
X3016103Y-697358D01*
Y-689740D01*
X3014198Y-687836D01*
X3008485D01*
X2960876Y-765940D02*
X2958971Y-764036D01*
X2955162D01*
X2953258Y-765940D01*
Y-767844D01*
X2955162Y-769749D01*
X2958971D01*
X2960876Y-771653D01*
Y-773558D01*
X2958971Y-775462D01*
X2955162D01*
X2953258Y-773558D01*
X2972302Y-767844D02*
X2966589D01*
X2964684Y-769749D01*
Y-773558D01*
X2966589Y-775462D01*
X2972302D01*
X2978015Y-767844D02*
X2981824D01*
X2983728Y-769749D01*
Y-775462D01*
X2978015D01*
X2976111Y-773558D01*
X2978015Y-771653D01*
X2983728D01*
X2987537Y-775462D02*
X2991346D01*
X2989441D01*
Y-764036D01*
X2987537D01*
X3002772Y-775462D02*
X2998963D01*
X2997059Y-773558D01*
Y-769749D01*
X2998963Y-767844D01*
X3002772D01*
X3004677Y-769749D01*
Y-771653D01*
X2997059D01*
X4375658Y-775462D02*
Y-764036D01*
X4381371D01*
X4383275Y-765940D01*
Y-769749D01*
X4381371Y-771653D01*
X4375658D01*
X4379467D02*
X4383275Y-775462D01*
X4394702Y-764036D02*
X4387084D01*
Y-775462D01*
X4394702D01*
X4387084Y-769749D02*
X4390893D01*
X4398511Y-764036D02*
Y-771653D01*
X4402319Y-775462D01*
X4406128Y-771653D01*
Y-764036D01*
X3893058D02*
Y-775462D01*
X3898771D01*
X3900675Y-773558D01*
Y-765940D01*
X3898771Y-764036D01*
X3893058D01*
X3904484D02*
Y-775462D01*
X3908293Y-771653D01*
X3912102Y-775462D01*
Y-764036D01*
X3923528Y-765940D02*
X3921624Y-764036D01*
X3917815D01*
X3915911Y-765940D01*
Y-773558D01*
X3917815Y-775462D01*
X3921624D01*
X3923528Y-773558D01*
Y-769749D01*
X3919720D01*
X3938763Y-775462D02*
Y-764036D01*
X3946381Y-775462D01*
Y-764036D01*
X3955903D02*
X3952094D01*
X3950190Y-765940D01*
Y-773558D01*
X3952094Y-775462D01*
X3955903D01*
X3957807Y-773558D01*
Y-765940D01*
X3955903Y-764036D01*
X3799076Y-765940D02*
X3797171Y-764036D01*
X3793362D01*
X3791458Y-765940D01*
Y-767844D01*
X3793362Y-769749D01*
X3797171D01*
X3799076Y-771653D01*
Y-773558D01*
X3797171Y-775462D01*
X3793362D01*
X3791458Y-773558D01*
X3802884Y-775462D02*
X3806693D01*
X3804789D01*
Y-767844D01*
X3802884D01*
X3812406D02*
X3820024D01*
X3812406Y-775462D01*
X3820024D01*
X3829546D02*
X3825737D01*
X3823833Y-773558D01*
Y-769749D01*
X3825737Y-767844D01*
X3829546D01*
X3831450Y-769749D01*
Y-771653D01*
X3823833D01*
X3570475Y-765940D02*
X3568571Y-764036D01*
X3564762D01*
X3562858Y-765940D01*
Y-767844D01*
X3564762Y-769749D01*
X3568571D01*
X3570475Y-771653D01*
Y-773558D01*
X3568571Y-775462D01*
X3564762D01*
X3562858Y-773558D01*
X3574284Y-764036D02*
Y-775462D01*
Y-769749D01*
X3576189Y-767844D01*
X3579998D01*
X3581902Y-769749D01*
Y-775462D01*
X3591424D02*
X3587615D01*
X3585710Y-773558D01*
Y-769749D01*
X3587615Y-767844D01*
X3591424D01*
X3593328Y-769749D01*
Y-771653D01*
X3585710D01*
X3602850Y-775462D02*
X3599041D01*
X3597137Y-773558D01*
Y-769749D01*
X3599041Y-767844D01*
X3602850D01*
X3604755Y-769749D01*
Y-771653D01*
X3597137D01*
X3610468Y-765940D02*
Y-767844D01*
X3608563D01*
X3612372D01*
X3610468D01*
Y-773558D01*
X3612372Y-775462D01*
X3677121D02*
X3680930D01*
X3682834Y-773558D01*
Y-769749D01*
X3680930Y-767844D01*
X3677121D01*
X3675217Y-769749D01*
Y-773558D01*
X3677121Y-775462D01*
X3688547D02*
Y-765940D01*
Y-769749D01*
X3686643D01*
X3690452D01*
X3688547D01*
Y-765940D01*
X3690452Y-764036D01*
X4483608Y-407928D02*
Y-425704D01*
Y-407928D02*
X4489533D01*
X4492073Y-408774D01*
X4493766Y-410467D01*
X4494612Y-412160D01*
X4495459Y-414700D01*
Y-418932D01*
X4494612Y-421472D01*
X4493766Y-423164D01*
X4492073Y-424857D01*
X4489533Y-425704D01*
X4483608D01*
X4496305Y586060D02*
X4495459Y587753D01*
X4493766Y589446D01*
X4492073Y590292D01*
X4488687D01*
X4486994Y589446D01*
X4485301Y587753D01*
X4484455Y586060D01*
X4483608Y583520D01*
Y579288D01*
X4484455Y576748D01*
X4485301Y575056D01*
X4486994Y573363D01*
X4488687Y572516D01*
X4492073D01*
X4493766Y573363D01*
X4495459Y575056D01*
X4496305Y576748D01*
X4483608Y1585972D02*
Y1568196D01*
Y1585972D02*
X4491227D01*
X4493766Y1585126D01*
X4494612Y1584279D01*
X4495459Y1582586D01*
Y1580893D01*
X4494612Y1579200D01*
X4493766Y1578354D01*
X4491227Y1577507D01*
X4483608D02*
X4491227D01*
X4493766Y1576661D01*
X4494612Y1575814D01*
X4495459Y1574121D01*
Y1571582D01*
X4494612Y1569889D01*
X4493766Y1569043D01*
X4491227Y1568196D01*
X4483608D01*
X4497152Y2566416D02*
X4490380Y2584192D01*
X4483608Y2566416D01*
X4486147Y2572341D02*
X4494612D01*
X4169156Y-855900D02*
X4172119Y-852938D01*
X4178043D01*
X4181006Y-855900D01*
Y-858863D01*
X4178043Y-861825D01*
X4181006Y-864787D01*
Y-867750D01*
X4178043Y-870712D01*
X4172119D01*
X4169156Y-867750D01*
Y-864787D01*
X4172119Y-861825D01*
X4169156Y-858863D01*
Y-855900D01*
X4172119Y-861825D02*
X4178043D01*
X3463036Y-852938D02*
X3474886D01*
Y-855900D01*
X3463036Y-867750D01*
Y-870712D01*
X2763686Y-852938D02*
X2757761Y-855900D01*
X2751836Y-861825D01*
Y-867750D01*
X2754798Y-870712D01*
X2760723D01*
X2763686Y-867750D01*
Y-864787D01*
X2760723Y-861825D01*
X2751836D01*
X2054860Y-852938D02*
X2043011D01*
Y-861825D01*
X2048935Y-858863D01*
X2051898D01*
X2054860Y-861825D01*
Y-867750D01*
X2051898Y-870712D01*
X2045973D01*
X2043011Y-867750D01*
X1344508Y-852936D02*
X1336043Y-864787D01*
X1348740D01*
X1344508Y-852936D02*
Y-870712D01*
X627382Y-852936D02*
X636693D01*
X631615Y-859708D01*
X634154D01*
X635847Y-860554D01*
X636693Y-861401D01*
X637540Y-863940D01*
Y-865633D01*
X636693Y-868173D01*
X635001Y-869865D01*
X632461Y-870712D01*
X629922D01*
X627382Y-869865D01*
X626536Y-869019D01*
X625689Y-867326D01*
X-79418Y-857168D02*
Y-856322D01*
X-78571Y-854629D01*
X-77724Y-853782D01*
X-76032Y-852936D01*
X-72646D01*
X-70953Y-853782D01*
X-70106Y-854629D01*
X-69260Y-856322D01*
Y-858015D01*
X-70106Y-859708D01*
X-71799Y-862247D01*
X-80264Y-870712D01*
X-68413D01*
X-786552Y-856322D02*
X-784859Y-855475D01*
X-782320Y-852936D01*
Y-870712D01*
X-1104392Y-407928D02*
Y-425704D01*
Y-407928D02*
X-1098467D01*
X-1095927Y-408774D01*
X-1094234Y-410467D01*
X-1093388Y-412160D01*
X-1092541Y-414700D01*
Y-418932D01*
X-1093388Y-421472D01*
X-1094234Y-423164D01*
X-1095927Y-424857D01*
X-1098467Y-425704D01*
X-1104392D01*
X-1091695Y586060D02*
X-1092541Y587753D01*
X-1094234Y589446D01*
X-1095927Y590292D01*
X-1099313D01*
X-1101006Y589446D01*
X-1102699Y587753D01*
X-1103546Y586060D01*
X-1104392Y583520D01*
Y579288D01*
X-1103546Y576748D01*
X-1102699Y575056D01*
X-1101006Y573363D01*
X-1099313Y572516D01*
X-1095927D01*
X-1094234Y573363D01*
X-1092541Y575056D01*
X-1091695Y576748D01*
X-1104392Y1585972D02*
Y1568196D01*
Y1585972D02*
X-1096774D01*
X-1094234Y1585126D01*
X-1093388Y1584279D01*
X-1092541Y1582586D01*
Y1580893D01*
X-1093388Y1579200D01*
X-1094234Y1578354D01*
X-1096774Y1577507D01*
X-1104392D02*
X-1096774D01*
X-1094234Y1576661D01*
X-1093388Y1575814D01*
X-1092541Y1574121D01*
Y1571582D01*
X-1093388Y1569889D01*
X-1094234Y1569043D01*
X-1096774Y1568196D01*
X-1104392D01*
X-1090848Y2566416D02*
X-1097620Y2584192D01*
X-1104392Y2566416D01*
X-1101852Y2572341D02*
X-1093388D01*
X4169156Y3053160D02*
X4172119Y3056122D01*
X4178043D01*
X4181006Y3053160D01*
Y3050197D01*
X4178043Y3047235D01*
X4181006Y3044273D01*
Y3041310D01*
X4178043Y3038348D01*
X4172119D01*
X4169156Y3041310D01*
Y3044273D01*
X4172119Y3047235D01*
X4169156Y3050197D01*
Y3053160D01*
X4172119Y3047235D02*
X4178043D01*
X3463036Y3056122D02*
X3474886D01*
Y3053160D01*
X3463036Y3041310D01*
Y3038348D01*
X2763686Y3056122D02*
X2757761Y3053160D01*
X2751836Y3047235D01*
Y3041310D01*
X2754798Y3038348D01*
X2760723D01*
X2763686Y3041310D01*
Y3044273D01*
X2760723Y3047235D01*
X2751836D01*
X2054860Y3056122D02*
X2043011D01*
Y3047235D01*
X2048935Y3050197D01*
X2051898D01*
X2054860Y3047235D01*
Y3041310D01*
X2051898Y3038348D01*
X2045973D01*
X2043011Y3041310D01*
X1344508Y3056124D02*
X1336043Y3044273D01*
X1348740D01*
X1344508Y3056124D02*
Y3038348D01*
X627382Y3056124D02*
X636693D01*
X631615Y3049352D01*
X634154D01*
X635847Y3048506D01*
X636693Y3047659D01*
X637540Y3045120D01*
Y3043427D01*
X636693Y3040887D01*
X635001Y3039195D01*
X632461Y3038348D01*
X629922D01*
X627382Y3039195D01*
X626536Y3040041D01*
X625689Y3041734D01*
X-79418Y3051892D02*
Y3052738D01*
X-78571Y3054431D01*
X-77724Y3055278D01*
X-76032Y3056124D01*
X-72646D01*
X-70953Y3055278D01*
X-70106Y3054431D01*
X-69260Y3052738D01*
Y3051045D01*
X-70106Y3049352D01*
X-71799Y3046813D01*
X-80264Y3038348D01*
X-68413D01*
X-786552Y3052738D02*
X-784859Y3053585D01*
X-782320Y3056124D01*
Y3038348D01*
D16*
X22661Y180594D02*
D03*
X13661D02*
D03*
X1071Y180594D02*
D03*
X-7929Y180594D02*
D03*
D22*
X-68580Y217352D02*
D03*
X-68580Y208352D02*
D03*
X-53340Y217352D02*
D03*
Y208352D02*
D03*
M02*
